<svg width="18" height="10" viewBox="0 0 18 10" fill="none" xmlns="http://www.w3.org/2000/svg">
<path d="M17.1929 0.712982C17.1362 0.575939 17.04 0.458806 16.9167 0.376396C16.7933 0.293986 16.6483 0.25 16.5 0.25H1.5C1.35167 0.249999 1.20666 0.293987 1.08332 0.376399C0.959982 0.458812 0.863853 0.575948 0.807088 0.712995C0.750323 0.850042 0.735472 1.00084 0.764414 1.14633C0.793356 1.29182 0.864791 1.42546 0.969684 1.53034L8.46969 9.03032C8.53933 9.09997 8.622 9.15522 8.71299 9.19291C8.80399 9.2306 8.90151 9.25 9 9.25C9.09849 9.25 9.19602 9.2306 9.28701 9.19291C9.37801 9.15522 9.46068 9.09997 9.53032 9.03032L17.0303 1.53034C17.1352 1.42545 17.2067 1.29181 17.2356 1.14632C17.2645 1.00084 17.2497 0.850031 17.1929 0.712982Z" fill="#D0D0D0"/>
</svg>
