<svg width="11" height="11" viewBox="0 0 11 11" fill="none" xmlns="http://www.w3.org/2000/svg">
<path d="M10.5528 6.71966C9.83732 9.59563 6.93055 11.3459 4.06028 10.6287C1.19122 9.91172 -0.555361 6.99865 0.160439 4.12293C0.875609 1.24665 3.78238 -0.503736 6.65175 0.213253C9.52181 0.930243 11.2683 3.84362 10.5527 6.71972L10.5528 6.71966H10.5528Z" fill="#F3BA2F"/>
<path fill-rule="evenodd" clip-rule="evenodd" d="M5.35764 3.45976L3.97044 4.84989L3.97047 4.84984L3.16335 4.04099L5.35764 1.84207L7.55264 4.04165L6.74549 4.85049L5.35764 3.45976ZM2.59287 4.61212L1.78571 5.42112L2.59282 6.22983L3.39999 5.42095L2.59287 4.61212ZM3.96984 5.99227L5.35704 7.38229L6.74487 5.99161L7.55244 6.80002L7.55204 6.80045L5.35704 8.99997L3.16276 6.80108L3.16161 6.79993L3.96984 5.99227ZM8.12091 4.61249L7.31374 5.42137L8.12088 6.23019L8.92802 5.42131L8.12091 4.61249Z" fill="white"/>
<path d="M6.17562 5.42059H6.17597L5.35699 4.59985L4.75165 5.20629V5.20629L4.68211 5.276L4.53868 5.41976L4.53754 5.42088L4.53868 5.42205L5.35699 6.24219L6.17602 5.42145L6.17642 5.42099L6.17568 5.42059" fill="white"/>
</svg>
