<?xml version="1.0" encoding="utf-8"?>
<!-- Generator: Adobe Illustrator 25.0.0, SVG Export Plug-In . SVG Version: 6.00 Build 0)  -->
<svg version="1.1" id="Layer_1" xmlns="http://www.w3.org/2000/svg" xmlns:xlink="http://www.w3.org/1999/xlink" x="0px" y="0px"
	 viewBox="0 0 24 24" style="enable-background:new 0 0 24 24;" xml:space="preserve">
<style type="text/css">
	.st0{fill:#FFFFFF;}
</style>
<g>
	<path class="st0" d="M20.2,16.5h-4.5c-0.4,0-0.8-0.3-0.8-0.8s0.3-0.8,0.8-0.8h3.8V4.5H9v3.8C9,8.7,8.7,9,8.2,9S7.5,8.7,7.5,8.2V3.7
		C7.5,3.3,7.8,3,8.2,3h12C20.7,3,21,3.3,21,3.7v12C21,16.2,20.7,16.5,20.2,16.5z"/>
</g>
<g>
	<path class="st0" d="M15.8,21h-12C3.3,21,3,20.7,3,20.2v-12c0-0.4,0.3-0.8,0.8-0.8h12c0.4,0,0.8,0.3,0.8,0.8v12
		C16.5,20.7,16.2,21,15.8,21z M4.5,19.5H15V9H4.5V19.5z"/>
</g>
</svg>
