<svg width="20" height="20" viewBox="0 0 20 20" fill="none" xmlns="http://www.w3.org/2000/svg">
<path d="M4.69887 8.23895H3.53003V9.42101H4.69887V8.23895Z" fill="#FFDD1A"/>
<path d="M2.3498 5.88684V4.7168H1.16895V5.88684V7.06889H2.3498V5.88684Z" fill="#FFDD1A"/>
<path d="M3.53045 7.06891H2.34961V8.23895H3.53045V7.06891Z" fill="#FFDD1A"/>
<path d="M19.9999 5.88684H18.8191V7.06889H19.9999V5.88684Z" fill="#0E0E11"/>
<path d="M19.9999 4.71619H18.8191V5.88623H19.9999V4.71619Z" fill="#0E0E11"/>
<path d="M19.9999 3.53473H18.8191V4.71678H19.9999V3.53473Z" fill="#0E0E11"/>
<path d="M18.819 7.06891H17.6382V8.23895H18.819V7.06891Z" fill="#0E0E11"/>
<path d="M18.819 5.88684H17.6382V7.06889H18.819V5.88684Z" fill="#FFDD1A"/>
<path d="M18.819 4.71619H17.6382V5.88623H18.819V4.71619Z" fill="#FFDD1A"/>
<path d="M18.819 3.53473H17.6382V4.71678H18.819V3.53473Z" fill="#FFDD1A"/>
<path d="M18.819 2.35211H17.6382V3.53416H18.819V2.35211Z" fill="#0E0E11"/>
<path d="M17.6383 8.23895H16.4695V9.42101H17.6383V8.23895Z" fill="#0E0E11"/>
<path d="M17.6383 7.06891H16.4695V8.23895H17.6383V7.06891Z" fill="#EA9E09"/>
<path d="M17.6383 3.53473H16.4695V4.71678H17.6383V3.53473Z" fill="#0E0E11"/>
<path d="M17.6383 2.35211H16.4695V3.53416H17.6383V2.35211Z" fill="#0E0E11"/>
<path d="M17.6383 1.18207H16.4695V2.35211H17.6383V1.18207Z" fill="#0E0E11"/>
<path d="M16.4702 9.42096H15.2893V10.591H16.4702V9.42096Z" fill="#0E0E11"/>
<path d="M16.4702 8.23895H15.2893V9.42101H16.4702V8.23895Z" fill="#EA9E09"/>
<path d="M2.35566 3.53473H1.1748V4.71678H2.35566V3.53473Z" fill="#FFDD1A"/>
<path d="M16.4702 4.71619H15.2893V5.88623H16.4702V4.71619Z" fill="#0E0E11"/>
<path d="M16.4702 3.53473H15.2893V4.71678H16.4702V3.53473Z" fill="#FFDD1A"/>
<path d="M16.4702 2.35211H15.2893V3.53416H16.4702V2.35211Z" fill="#FFDD1A"/>
<path d="M16.4702 1.18207H15.2893V2.35211H16.4702V1.18207Z" fill="#FFDD1A"/>
<path d="M16.4702 0H15.2893V1.18205H16.4702V0Z" fill="#0E0E11"/>
<path d="M15.2892 9.42096H14.1084V10.591H15.2892V9.42096Z" fill="#0E0E11"/>
<path d="M15.2892 8.23895H14.1084V9.42101H15.2892V8.23895Z" fill="#0E0E11"/>
<path d="M15.2892 7.06891H14.1084V8.23895H15.2892V7.06891Z" fill="#0E0E11"/>
<path d="M15.2892 5.88684H14.1084V7.06889H15.2892V5.88684Z" fill="#0E0E11"/>
<path d="M15.2892 4.71619H14.1084V5.88623H15.2892V4.71619Z" fill="#FFDD1A"/>
<path d="M15.2892 3.53473H14.1084V4.71678H15.2892V3.53473Z" fill="#FFDD1A"/>
<path d="M15.2892 2.35211H14.1084V3.53416H15.2892V2.35211Z" fill="#FFDD1A"/>
<path d="M15.2892 1.18207H14.1084V2.35211H15.2892V1.18207Z" fill="#FFDD1A"/>
<path d="M15.2892 0H14.1084V1.18205H15.2892V0Z" fill="#0E0E11"/>
<path d="M14.1083 18.83H12.9395V20H14.1083V18.83Z" fill="#0E0E11"/>
<path d="M14.1083 17.6479H12.9395V18.8299H14.1083V17.6479Z" fill="#0E0E11"/>
<path d="M14.1083 10.591H12.9395V11.7731H14.1083V10.591Z" fill="#0E0E11"/>
<path d="M14.1083 9.42096H12.9395V10.591H14.1083V9.42096Z" fill="#EA9E09"/>
<path d="M14.1083 8.23895H12.9395V9.42101H14.1083V8.23895Z" fill="#FFDD1A"/>
<path d="M14.1083 7.06891H12.9395V8.23895H14.1083V7.06891Z" fill="#FFDD1A"/>
<path d="M14.1083 5.88684H12.9395V7.06889H14.1083V5.88684Z" fill="#FFDD1A"/>
<path d="M14.1083 4.71619H12.9395V5.88623H14.1083V4.71619Z" fill="#FFDD1A"/>
<path d="M14.1083 3.53473H12.9395V4.71678H14.1083V3.53473Z" fill="#FFDD1A"/>
<path d="M14.1083 2.35211H12.9395V3.53416H14.1083V2.35211Z" fill="#FFDD1A"/>
<path d="M14.1083 1.18207H12.9395V2.35211H14.1083V1.18207Z" fill="#FFDD1A"/>
<path d="M14.1083 0H12.9395V1.18205H14.1083V0Z" fill="#0E0E11"/>
<path d="M12.9401 18.83H11.7593V20H12.9401V18.83Z" fill="#0E0E11"/>
<path d="M12.9401 17.6479H11.7593V18.8299H12.9401V17.6479Z" fill="#EA9E09"/>
<path d="M12.9401 16.4778H11.7593V17.6479H12.9401V16.4778Z" fill="#0E0E11"/>
<path d="M12.9401 11.7731H11.7593V12.9431H12.9401V11.7731Z" fill="#0E0E11"/>
<path d="M12.9401 10.591H11.7593V11.7731H12.9401V10.591Z" fill="#EA9E09"/>
<path d="M12.9401 9.42096H11.7593V10.591H12.9401V9.42096Z" fill="#FFDD1A"/>
<path d="M12.9401 8.23895H11.7593V9.42101H12.9401V8.23895Z" fill="#FFDD1A"/>
<path d="M12.9401 7.06891H11.7593V8.23895H12.9401V7.06891Z" fill="#FFDD1A"/>
<path d="M12.9401 5.88684H11.7593V7.06889H12.9401V5.88684Z" fill="#FFDD1A"/>
<path d="M12.9401 4.71619H11.7593V5.88623H12.9401V4.71619Z" fill="#FFDD1A"/>
<path d="M12.9401 3.53473H11.7593V4.71678H12.9401V3.53473Z" fill="#FFDD1A"/>
<path d="M12.9401 2.35211H11.7593V3.53416H12.9401V2.35211Z" fill="#FFDD1A"/>
<path d="M12.9401 1.18207H11.7593V2.35211H12.9401V1.18207Z" fill="#FFDD1A"/>
<path d="M12.9401 0H11.7593V1.18205H12.9401V0Z" fill="#0E0E11"/>
<path d="M11.7592 18.83H10.5903V20H11.7592V18.83Z" fill="#0E0E11"/>
<path d="M11.7592 17.6479H10.5903V18.8299H11.7592V17.6479Z" fill="#FFDD1A"/>
<path d="M11.7592 16.4778H10.5903V17.6479H11.7592V16.4778Z" fill="#0E0E11"/>
<path d="M11.7592 15.2958H10.5903V16.4778H11.7592V15.2958Z" fill="#0E0E11"/>
<path d="M11.7592 14.1258H10.5903V15.2958H11.7592V14.1258Z" fill="#0E0E11"/>
<path d="M11.7592 12.9437H10.5903V14.1258H11.7592V12.9437Z" fill="#0E0E11"/>
<path d="M11.7592 11.7731H10.5903V12.9431H11.7592V11.7731Z" fill="#EA9E09"/>
<path d="M11.7592 10.591H10.5903V11.7731H11.7592V10.591Z" fill="#FFDD1A"/>
<path d="M11.7592 9.42096H10.5903V10.591H11.7592V9.42096Z" fill="#FFDD1A"/>
<path d="M11.7592 8.23895H10.5903V9.42101H11.7592V8.23895Z" fill="#FFDD1A"/>
<path d="M11.7592 7.06891H10.5903V8.23895H11.7592V7.06891Z" fill="#FFDD1A"/>
<path d="M11.7592 5.88684H10.5903V7.06889H11.7592V5.88684Z" fill="#FFDD1A"/>
<path d="M11.7592 4.71619H10.5903V5.88623H11.7592V4.71619Z" fill="#FFDD1A"/>
<path d="M11.7592 3.53473H10.5903V4.71678H11.7592V3.53473Z" fill="#FFDD1A"/>
<path d="M11.7592 2.35211H10.5903V3.53416H11.7592V2.35211Z" fill="#FFDD1A"/>
<path d="M11.7592 1.18207H10.5903V2.35211H11.7592V1.18207Z" fill="#FFDD1A"/>
<path d="M11.7592 0H10.5903V1.18205H11.7592V0Z" fill="#0E0E11"/>
<path d="M10.5905 18.83H9.40967V20H10.5905V18.83Z" fill="#0E0E11"/>
<path d="M10.5905 17.6479H9.40967V18.8299H10.5905V17.6479Z" fill="#FFDD1A"/>
<path d="M10.5905 16.4778H9.40967V17.6479H10.5905V16.4778Z" fill="#FFDD1A"/>
<path d="M10.5905 15.2958H9.40967V16.4778H10.5905V15.2958Z" fill="#FFDD1A"/>
<path d="M10.5905 14.1258H9.40967V15.2958H10.5905V14.1258Z" fill="#FFDD1A"/>
<path d="M10.5905 12.9437H9.40967V14.1258H10.5905V12.9437Z" fill="#0E0E11"/>
<path d="M10.5905 11.7731H9.40967V12.9431H10.5905V11.7731Z" fill="#EA9E09"/>
<path d="M10.5905 10.591H9.40967V11.7731H10.5905V10.591Z" fill="#FFDD1A"/>
<path d="M10.5905 9.42096H9.40967V10.591H10.5905V9.42096Z" fill="#FFDD1A"/>
<path d="M10.5905 8.23895H9.40967V9.42101H10.5905V8.23895Z" fill="#FFDD1A"/>
<path d="M10.5905 7.06891H9.40967V8.23895H10.5905V7.06891Z" fill="#FFDD1A"/>
<path d="M10.5905 5.88684H9.40967V7.06889H10.5905V5.88684Z" fill="#FFDD1A"/>
<path d="M10.5905 4.71619H9.40967V5.88623H10.5905V4.71619Z" fill="#FFDD1A"/>
<path d="M10.5905 3.53473H9.40967V4.71678H10.5905V3.53473Z" fill="#FFDD1A"/>
<path d="M10.5905 2.35211H9.40967V3.53416H10.5905V2.35211Z" fill="#FFDD1A"/>
<path d="M10.5905 1.18207H9.40967V2.35211H10.5905V1.18207Z" fill="#FFDD1A"/>
<path d="M10.5905 0H9.40967V1.18205H10.5905V0Z" fill="#0E0E11"/>
<path d="M9.40961 18.83H8.22876V20H9.40961V18.83Z" fill="#0E0E11"/>
<path d="M9.40961 17.6479H8.22876V18.8299H9.40961V17.6479Z" fill="#FFDD1A"/>
<path d="M9.40961 16.4778H8.22876V17.6479H9.40961V16.4778Z" fill="#0E0E11"/>
<path d="M9.40961 15.2958H8.22876V16.4778H9.40961V15.2958Z" fill="#0E0E11"/>
<path d="M9.40961 14.1258H8.22876V15.2958H9.40961V14.1258Z" fill="#0E0E11"/>
<path d="M9.40961 12.9437H8.22876V14.1258H9.40961V12.9437Z" fill="#0E0E11"/>
<path d="M9.40961 11.7731H8.22876V12.9431H9.40961V11.7731Z" fill="#FFDD1A"/>
<path d="M9.40961 10.591H8.22876V11.7731H9.40961V10.591Z" fill="#FFDD1A"/>
<path d="M9.40961 9.42096H8.22876V10.591H9.40961V9.42096Z" fill="#F9F9F9"/>
<path d="M9.40961 8.23895H8.22876V9.42101H9.40961V8.23895Z" fill="#FFDD1A"/>
<path d="M9.40961 7.06891H8.22876V8.23895H9.40961V7.06891Z" fill="#FFDD1A"/>
<path d="M9.40961 5.88684H8.22876V7.06889H9.40961V5.88684Z" fill="#FFDD1A"/>
<path d="M9.40961 4.71619H8.22876V5.88623H9.40961V4.71619Z" fill="#FFDD1A"/>
<path d="M9.40961 3.53473H8.22876V4.71678H9.40961V3.53473Z" fill="#FFDD1A"/>
<path d="M9.40961 2.35211H8.22876V3.53416H9.40961V2.35211Z" fill="#FFDD1A"/>
<path d="M9.40961 1.18207H8.22876V2.35211H9.40961V1.18207Z" fill="#FFDD1A"/>
<path d="M9.40961 0H8.22876V1.18205H9.40961V0Z" fill="#0E0E11"/>
<path d="M8.22939 18.83H7.06055V20H8.22939V18.83Z" fill="#0E0E11"/>
<path d="M8.22939 17.6479H7.06055V18.8299H8.22939V17.6479Z" fill="#F9F9F9"/>
<path d="M8.22939 16.4778H7.06055V17.6479H8.22939V16.4778Z" fill="#0E0E11"/>
<path d="M8.22939 11.7731H7.06055V12.9431H8.22939V11.7731Z" fill="#0E0E11"/>
<path d="M8.22939 10.591H7.06055V11.7731H8.22939V10.591Z" fill="#FFDD1A"/>
<path d="M8.22939 9.42096H7.06055V10.591H8.22939V9.42096Z" fill="#FFDD1A"/>
<path d="M8.22939 8.23895H7.06055V9.42101H8.22939V8.23895Z" fill="#F9F9F9"/>
<path d="M8.22939 7.06891H7.06055V8.23895H8.22939V7.06891Z" fill="#F9F9F9"/>
<path d="M8.22939 5.88684H7.06055V7.06889H8.22939V5.88684Z" fill="#F9F9F9"/>
<path d="M8.22939 4.71619H7.06055V5.88623H8.22939V4.71619Z" fill="#F9F9F9"/>
<path d="M8.22939 3.53473H7.06055V4.71678H8.22939V3.53473Z" fill="#FFDD1A"/>
<path d="M8.22939 2.35211H7.06055V3.53416H8.22939V2.35211Z" fill="#FFDD1A"/>
<path d="M8.22939 1.18207H7.06055V2.35211H8.22939V1.18207Z" fill="#FFDD1A"/>
<path d="M8.22939 0H7.06055V1.18205H8.22939V0Z" fill="#0E0E11"/>
<path d="M7.06048 18.83H5.87964V20H7.06048V18.83Z" fill="#0E0E11"/>
<path d="M7.06048 17.6479H5.87964V18.8299H7.06048V17.6479Z" fill="#0E0E11"/>
<path d="M7.06048 10.591H5.87964V11.7731H7.06048V10.591Z" fill="#0E0E11"/>
<path d="M7.06048 9.42096H5.87964V10.591H7.06048V9.42096Z" fill="#FFDD1A"/>
<path d="M7.06048 8.23895H5.87964V9.42101H7.06048V8.23895Z" fill="#FFDD1A"/>
<path d="M7.06048 7.06891H5.87964V8.23895H7.06048V7.06891Z" fill="#FFDD1A"/>
<path d="M7.06048 5.88684H5.87964V7.06889H7.06048V5.88684Z" fill="#FFDD1A"/>
<path d="M7.06048 4.71619H5.87964V5.88623H7.06048V4.71619Z" fill="#FFDD1A"/>
<path d="M7.06048 3.53473H5.87964V4.71678H7.06048V3.53473Z" fill="#F9F9F9"/>
<path d="M7.06048 2.35211H5.87964V3.53416H7.06048V2.35211Z" fill="#FFDD1A"/>
<path d="M7.06048 1.18207H5.87964V2.35211H7.06048V1.18207Z" fill="#FFDD1A"/>
<path d="M7.06048 0H5.87964V1.18205H7.06048V0Z" fill="#0E0E11"/>
<path d="M5.87958 9.42096H4.69873V10.591H5.87958V9.42096Z" fill="#0E0E11"/>
<path d="M5.87958 8.23895H4.69873V9.42101H5.87958V8.23895Z" fill="#0E0E11"/>
<path d="M5.87958 7.06891H4.69873V8.23895H5.87958V7.06891Z" fill="#0E0E11"/>
<path d="M5.87958 5.88684H4.69873V7.06889H5.87958V5.88684Z" fill="#0E0E11"/>
<path d="M5.87958 4.71619H4.69873V5.88623H5.87958V4.71619Z" fill="#FFDD1A"/>
<path d="M5.87958 3.53473H4.69873V4.71678H5.87958V3.53473Z" fill="#FFDD1A"/>
<path d="M5.87958 2.35211H4.69873V3.53416H5.87958V2.35211Z" fill="#F9F9F9"/>
<path d="M5.87958 1.18207H4.69873V2.35211H5.87958V1.18207Z" fill="#F9F9F9"/>
<path d="M5.87958 0H4.69873V1.18205H5.87958V0Z" fill="#0E0E11"/>
<path d="M4.69887 9.42096H3.53003V10.591H4.69887V9.42096Z" fill="#0E0E11"/>
<path d="M4.69887 4.71619H3.53003V5.88623H4.69887V4.71619Z" fill="#0E0E11"/>
<path d="M4.69887 3.53473H3.53003V4.71678H4.69887V3.53473Z" fill="#FFDD1A"/>
<path d="M4.69887 2.35211H3.53003V3.53416H4.69887V2.35211Z" fill="#FFDD1A"/>
<path d="M4.69887 1.18207H3.53003V2.35211H4.69887V1.18207Z" fill="#FFDD1A"/>
<path d="M4.69887 0H3.53003V1.18205H4.69887V0Z" fill="#0E0E11"/>
<path d="M3.53045 8.23895H2.34961V9.42101H3.53045V8.23895Z" fill="#0E0E11"/>
<path d="M3.53045 3.53473H2.34961V4.71678H3.53045V3.53473Z" fill="#0E0E11"/>
<path d="M3.53045 2.35211H2.34961V3.53416H3.53045V2.35211Z" fill="#0E0E11"/>
<path d="M3.53045 1.18207H2.34961V2.35211H3.53045V1.18207Z" fill="#0E0E11"/>
<path d="M2.3498 7.06891H1.16895V8.23895H2.3498V7.06891Z" fill="#0E0E11"/>
<path d="M2.3498 3.53473H1.16895V4.71678H2.3498V3.53473Z" fill="#F9F9F9"/>
<path d="M2.3498 2.35211H1.16895V3.53416H2.3498V2.35211Z" fill="#0E0E11"/>
<path d="M1.16884 5.88684H0V7.06889H1.16884V5.88684Z" fill="#0E0E11"/>
<path d="M1.16884 4.71619H0V5.88623H1.16884V4.71619Z" fill="#0E0E11"/>
<path d="M1.16884 3.53473H0V4.71678H1.16884V3.53473Z" fill="#0E0E11"/>
</svg>
