<svg width="24" height="20" viewBox="0 0 24 20" fill="none" xmlns="http://www.w3.org/2000/svg">
<path d="M23.7523 7.49951H22.51V8.74305H23.7523V7.49951Z" fill="#0E0E11"/>
<path d="M23.7523 6.24323H22.51V7.49953H23.7523V6.24323Z" fill="#0E0E11"/>
<path d="M23.7523 4.99969H22.51V6.24323H23.7523V4.99969Z" fill="#0E0E11"/>
<path d="M23.7523 3.74335H22.51V4.99965H23.7523V3.74335Z" fill="#0E0E11"/>
<path d="M22.5102 8.74371H21.2551V10H22.5102V8.74371Z" fill="#0E0E11"/>
<path d="M22.5102 7.49951H21.2551V8.74305H22.5102V7.49951Z" fill="#BC1830"/>
<path d="M22.5102 6.24323H21.2551V7.49953H22.5102V6.24323Z" fill="#BC1830"/>
<path d="M22.5102 4.99969H21.2551V6.24323H22.5102V4.99969Z" fill="#BC1830"/>
<path d="M22.5102 3.74335H21.2551V4.99965H22.5102V3.74335Z" fill="#BC1830"/>
<path d="M22.5102 2.49982H21.2551V3.74335H22.5102V2.49982Z" fill="#0E0E11"/>
<path d="M21.2558 10H20.0007V11.2435H21.2558V10Z" fill="#0E0E11"/>
<path d="M21.2558 8.74371H20.0007V10H21.2558V8.74371Z" fill="#BC1830"/>
<path d="M21.2558 7.49951H20.0007V8.74305H21.2558V7.49951Z" fill="#FD0505"/>
<path d="M21.2558 6.24323H20.0007V7.49953H21.2558V6.24323Z" fill="#FD0505"/>
<path d="M21.2558 4.99969H20.0007V6.24323H21.2558V4.99969Z" fill="#FD0505"/>
<path d="M21.2558 3.74335H20.0007V4.99965H21.2558V3.74335Z" fill="#FD0505"/>
<path d="M21.2558 2.49982H20.0007V3.74335H21.2558V2.49982Z" fill="#BC1830"/>
<path d="M21.2558 1.24353H20.0007V2.49983H21.2558V1.24353Z" fill="#0E0E11"/>
<path d="M20.0006 11.2435H18.7583V12.4998H20.0006V11.2435Z" fill="#0E0E11"/>
<path d="M20.0006 10H18.7583V11.2435H20.0006V10Z" fill="#BC1830"/>
<path d="M20.0006 8.74371H18.7583V10H20.0006V8.74371Z" fill="#FD0505"/>
<path d="M20.0006 7.49951H18.7583V8.74305H20.0006V7.49951Z" fill="#FD0505"/>
<path d="M20.0006 6.24323H18.7583V7.49953H20.0006V6.24323Z" fill="#FD0505"/>
<path d="M20.0006 4.99969H18.7583V6.24323H20.0006V4.99969Z" fill="#FD0505"/>
<path d="M20.0006 3.74335H18.7583V4.99965H20.0006V3.74335Z" fill="#FD0505"/>
<path d="M20.0006 2.49982H18.7583V3.74335H20.0006V2.49982Z" fill="#FD0505"/>
<path d="M20.0006 1.24353H18.7583V2.49983H20.0006V1.24353Z" fill="#BC1830"/>
<path d="M20.0006 0H18.7583V1.24354H20.0006V0Z" fill="#0E0E11"/>
<path d="M18.7585 12.4998H17.5034V13.7434H18.7585V12.4998Z" fill="#0E0E11"/>
<path d="M18.7585 11.2435H17.5034V12.4998H18.7585V11.2435Z" fill="#BC1830"/>
<path d="M18.7585 10H17.5034V11.2435H18.7585V10Z" fill="#FD0505"/>
<path d="M18.7585 8.74371H17.5034V10H18.7585V8.74371Z" fill="#FD0505"/>
<path d="M18.7585 7.49951H17.5034V8.74305H18.7585V7.49951Z" fill="#FD0505"/>
<path d="M18.7585 6.24323H17.5034V7.49953H18.7585V6.24323Z" fill="#FD0505"/>
<path d="M18.7585 4.99969H17.5034V6.24323H18.7585V4.99969Z" fill="#FD0505"/>
<path d="M18.7585 3.74335H17.5034V4.99965H18.7585V3.74335Z" fill="#FD0505"/>
<path d="M18.7585 2.49982H17.5034V3.74335H18.7585V2.49982Z" fill="#FD0505"/>
<path d="M18.7585 1.24353H17.5034V2.49983H18.7585V1.24353Z" fill="#BC1830"/>
<path d="M18.7585 0H17.5034V1.24354H18.7585V0Z" fill="#0E0E11"/>
<path d="M17.5032 13.7433H16.261V14.9997H17.5032V13.7433Z" fill="#0E0E11"/>
<path d="M17.5032 12.4998H16.261V13.7434H17.5032V12.4998Z" fill="#BC1830"/>
<path d="M17.5032 11.2435H16.261V12.4998H17.5032V11.2435Z" fill="#FD0505"/>
<path d="M17.5032 10H16.261V11.2435H17.5032V10Z" fill="#FD0505"/>
<path d="M17.5032 8.74371H16.261V10H17.5032V8.74371Z" fill="#FD0505"/>
<path d="M17.5032 7.49951H16.261V8.74305H17.5032V7.49951Z" fill="#FD0505"/>
<path d="M17.5032 6.24323H16.261V7.49953H17.5032V6.24323Z" fill="#FD0505"/>
<path d="M17.5032 4.99969H16.261V6.24323H17.5032V4.99969Z" fill="#FD0505"/>
<path d="M17.5032 3.74335H16.261V4.99965H17.5032V3.74335Z" fill="#FD0505"/>
<path d="M17.5032 2.49982H16.261V3.74335H17.5032V2.49982Z" fill="#FD0505"/>
<path d="M17.5032 1.24353H16.261V2.49983H17.5032V1.24353Z" fill="#BC1830"/>
<path d="M17.5032 0H16.261V1.24354H17.5032V0Z" fill="#0E0E11"/>
<path d="M16.2616 14.9997H15.0066V16.2432H16.2616V14.9997Z" fill="#0E0E11"/>
<path d="M16.2616 13.7433H15.0066V14.9997H16.2616V13.7433Z" fill="#BC1830"/>
<path d="M16.2616 12.4998H15.0066V13.7434H16.2616V12.4998Z" fill="#FD0505"/>
<path d="M16.2616 11.2435H15.0066V12.4998H16.2616V11.2435Z" fill="#FD0505"/>
<path d="M16.2616 10H15.0066V11.2435H16.2616V10Z" fill="#FD0505"/>
<path d="M16.2616 8.74371H15.0066V10H16.2616V8.74371Z" fill="#FD0505"/>
<path d="M16.2616 7.49951H15.0066V8.74305H16.2616V7.49951Z" fill="#FD0505"/>
<path d="M16.2616 6.24323H15.0066V7.49953H16.2616V6.24323Z" fill="#FD0505"/>
<path d="M16.2616 4.99969H15.0066V6.24323H16.2616V4.99969Z" fill="#FD0505"/>
<path d="M16.2616 3.74335H15.0066V4.99965H16.2616V3.74335Z" fill="#FD0505"/>
<path d="M16.2616 2.49982H15.0066V3.74335H16.2616V2.49982Z" fill="#FD0505"/>
<path d="M16.2616 1.24353H15.0066V2.49983H16.2616V1.24353Z" fill="#BC1830"/>
<path d="M16.2616 0H15.0066V1.24354H16.2616V0Z" fill="#0E0E11"/>
<path d="M15.0067 16.2432H13.7517V17.4995H15.0067V16.2432Z" fill="#0E0E11"/>
<path d="M15.0067 14.9997H13.7517V16.2432H15.0067V14.9997Z" fill="#BC1830"/>
<path d="M15.0067 13.7433H13.7517V14.9997H15.0067V13.7433Z" fill="#FD0505"/>
<path d="M15.0067 12.4998H13.7517V13.7434H15.0067V12.4998Z" fill="#FD0505"/>
<path d="M15.0067 11.2435H13.7517V12.4998H15.0067V11.2435Z" fill="#FD0505"/>
<path d="M15.0067 10H13.7517V11.2435H15.0067V10Z" fill="#FD0505"/>
<path d="M15.0067 8.74371H13.7517V10H15.0067V8.74371Z" fill="#FD0505"/>
<path d="M15.0067 7.49951H13.7517V8.74305H15.0067V7.49951Z" fill="#FD0505"/>
<path d="M15.0067 6.24323H13.7517V7.49953H15.0067V6.24323Z" fill="#FD0505"/>
<path d="M15.0067 4.99969H13.7517V6.24323H15.0067V4.99969Z" fill="#FD0505"/>
<path d="M15.0067 3.74335H13.7517V4.99965H15.0067V3.74335Z" fill="#FD0505"/>
<path d="M15.0067 2.49982H13.7517V3.74335H15.0067V2.49982Z" fill="#FD0505"/>
<path d="M15.0067 1.24353H13.7517V2.49983H15.0067V1.24353Z" fill="#0E0E11"/>
<path d="M13.7518 17.4995H12.5095V18.743H13.7518V17.4995Z" fill="#0E0E11"/>
<path d="M13.7518 16.2432H12.5095V17.4995H13.7518V16.2432Z" fill="#BC1830"/>
<path d="M13.7518 14.9997H12.5095V16.2432H13.7518V14.9997Z" fill="#FD0505"/>
<path d="M13.7518 13.7433H12.5095V14.9997H13.7518V13.7433Z" fill="#FD0505"/>
<path d="M13.7518 12.4998H12.5095V13.7434H13.7518V12.4998Z" fill="#FD0505"/>
<path d="M13.7518 11.2435H12.5095V12.4998H13.7518V11.2435Z" fill="#FD0505"/>
<path d="M13.7518 10H12.5095V11.2435H13.7518V10Z" fill="#FD0505"/>
<path d="M13.7518 8.74371H12.5095V10H13.7518V8.74371Z" fill="#FD0505"/>
<path d="M13.7518 7.49951H12.5095V8.74305H13.7518V7.49951Z" fill="#FD0505"/>
<path d="M13.7518 6.24323H12.5095V7.49953H13.7518V6.24323Z" fill="#FD0505"/>
<path d="M13.7518 4.99969H12.5095V6.24323H13.7518V4.99969Z" fill="#FD0505"/>
<path d="M13.7518 3.74335H12.5095V4.99965H13.7518V3.74335Z" fill="#FD0505"/>
<path d="M13.7518 2.49982H12.5095V3.74335H13.7518V2.49982Z" fill="#0E0E11"/>
<path d="M12.5102 18.7437H11.2551V20H12.5102V18.7437Z" fill="#0E0E11"/>
<path d="M12.5102 17.4995H11.2551V18.743H12.5102V17.4995Z" fill="#BC1830"/>
<path d="M12.5102 16.2432H11.2551V17.4995H12.5102V16.2432Z" fill="#FD0505"/>
<path d="M12.5102 14.9997H11.2551V16.2432H12.5102V14.9997Z" fill="#FD0505"/>
<path d="M12.5102 13.7433H11.2551V14.9997H12.5102V13.7433Z" fill="#FD0505"/>
<path d="M12.5102 12.4998H11.2551V13.7434H12.5102V12.4998Z" fill="#FD0505"/>
<path d="M12.5102 11.2435H11.2551V12.4998H12.5102V11.2435Z" fill="#FD0505"/>
<path d="M12.5102 10H11.2551V11.2435H12.5102V10Z" fill="#FD0505"/>
<path d="M12.5102 8.74371H11.2551V10H12.5102V8.74371Z" fill="#FD0505"/>
<path d="M12.5102 7.49951H11.2551V8.74305H12.5102V7.49951Z" fill="#FD0505"/>
<path d="M12.5102 6.24323H11.2551V7.49953H12.5102V6.24323Z" fill="#FD0505"/>
<path d="M12.5102 4.99969H11.2551V6.24323H12.5102V4.99969Z" fill="#FD0505"/>
<path d="M12.5102 3.74335H11.2551V4.99965H12.5102V3.74335Z" fill="#0E0E11"/>
<path d="M11.255 17.4995H10V18.743H11.255V17.4995Z" fill="#0E0E11"/>
<path d="M11.255 16.2432H10V17.4995H11.255V16.2432Z" fill="#BC1830"/>
<path d="M11.255 14.9997H10V16.2432H11.255V14.9997Z" fill="#FD0505"/>
<path d="M11.255 13.7433H10V14.9997H11.255V13.7433Z" fill="#FD0505"/>
<path d="M11.255 12.4998H10V13.7434H11.255V12.4998Z" fill="#FD0505"/>
<path d="M11.255 11.2435H10V12.4998H11.255V11.2435Z" fill="#FD0505"/>
<path d="M11.255 10H10V11.2435H11.255V10Z" fill="#FD0505"/>
<path d="M11.255 8.74371H10V10H11.255V8.74371Z" fill="#FD0505"/>
<path d="M11.255 7.49951H10V8.74305H11.255V7.49951Z" fill="#FD0505"/>
<path d="M11.255 6.24323H10V7.49953H11.255V6.24323Z" fill="#FD0505"/>
<path d="M11.255 4.99969H10V6.24323H11.255V4.99969Z" fill="#FD0505"/>
<path d="M11.255 3.74335H10V4.99965H11.255V3.74335Z" fill="#FD0505"/>
<path d="M11.255 2.49982H10V3.74335H11.255V2.49982Z" fill="#0E0E11"/>
<path d="M10.0001 16.2432H8.75781V17.4995H10.0001V16.2432Z" fill="#0E0E11"/>
<path d="M10.0001 14.9997H8.75781V16.2432H10.0001V14.9997Z" fill="#BC1830"/>
<path d="M10.0001 13.7433H8.75781V14.9997H10.0001V13.7433Z" fill="#FD0505"/>
<path d="M10.0001 12.4998H8.75781V13.7434H10.0001V12.4998Z" fill="#FD0505"/>
<path d="M10.0001 11.2435H8.75781V12.4998H10.0001V11.2435Z" fill="#FD0505"/>
<path d="M10.0001 10H8.75781V11.2435H10.0001V10Z" fill="#FD0505"/>
<path d="M10.0001 8.74371H8.75781V10H10.0001V8.74371Z" fill="#FD0505"/>
<path d="M10.0001 7.49951H8.75781V8.74305H10.0001V7.49951Z" fill="#FD0505"/>
<path d="M10.0001 6.24323H8.75781V7.49953H10.0001V6.24323Z" fill="#FD0505"/>
<path d="M10.0001 4.99969H8.75781V6.24323H10.0001V4.99969Z" fill="#FD0505"/>
<path d="M10.0001 3.74335H8.75781V4.99965H10.0001V3.74335Z" fill="#FD0505"/>
<path d="M10.0001 2.49982H8.75781V3.74335H10.0001V2.49982Z" fill="#FD0505"/>
<path d="M10.0001 1.24353H8.75781V2.49983H10.0001V1.24353Z" fill="#0E0E11"/>
<path d="M8.75844 14.9997H7.50342V16.2432H8.75844V14.9997Z" fill="#0E0E11"/>
<path d="M8.75844 13.7433H7.50342V14.9997H8.75844V13.7433Z" fill="#FD0505"/>
<path d="M8.75844 12.4998H7.50342V13.7434H8.75844V12.4998Z" fill="#FD0505"/>
<path d="M8.75844 11.2435H7.50342V12.4998H8.75844V11.2435Z" fill="#FD0505"/>
<path d="M8.75844 10H7.50342V11.2435H8.75844V10Z" fill="#FD0505"/>
<path d="M8.75844 8.74371H7.50342V10H8.75844V8.74371Z" fill="#FD0505"/>
<path d="M8.75844 7.49951H7.50342V8.74305H8.75844V7.49951Z" fill="#FD0505"/>
<path d="M8.75844 6.24323H7.50342V7.49953H8.75844V6.24323Z" fill="#FD0505"/>
<path d="M8.75844 4.99969H7.50342V6.24323H8.75844V4.99969Z" fill="#FD0505"/>
<path d="M8.75844 3.74335H7.50342V4.99965H8.75844V3.74335Z" fill="#FD0505"/>
<path d="M8.75844 2.49982H7.50342V3.74335H8.75844V2.49982Z" fill="#FD0505"/>
<path d="M8.75844 1.24353H7.50342V2.49983H8.75844V1.24353Z" fill="#FD0505"/>
<path d="M8.75844 0H7.50342V1.24354H8.75844V0Z" fill="#0E0E11"/>
<path d="M7.50334 13.7433H6.24829V14.9997H7.50334V13.7433Z" fill="#0E0E11"/>
<path d="M7.50334 12.4998H6.24829V13.7434H7.50334V12.4998Z" fill="#FD0505"/>
<path d="M7.50334 11.2435H6.24829V12.4998H7.50334V11.2435Z" fill="#FD0505"/>
<path d="M7.50334 10H6.24829V11.2435H7.50334V10Z" fill="#FD0505"/>
<path d="M7.50334 8.74371H6.24829V10H7.50334V8.74371Z" fill="#FD0505"/>
<path d="M7.50334 7.49951H6.24829V8.74305H7.50334V7.49951Z" fill="#FD0505"/>
<path d="M7.50334 6.24323H6.24829V7.49953H7.50334V6.24323Z" fill="#FD0505"/>
<path d="M7.50334 4.99969H6.24829V6.24323H7.50334V4.99969Z" fill="#FD0505"/>
<path d="M7.50334 3.74335H6.24829V4.99965H7.50334V3.74335Z" fill="white"/>
<path d="M7.50334 2.49982H6.24829V3.74335H7.50334V2.49982Z" fill="#FD0505"/>
<path d="M7.50334 1.24353H6.24829V2.49983H7.50334V1.24353Z" fill="#FD0505"/>
<path d="M7.50334 0H6.24829V1.24354H7.50334V0Z" fill="#0E0E11"/>
<path d="M6.24835 12.4998H5.0061V13.7434H6.24835V12.4998Z" fill="#0E0E11"/>
<path d="M6.24835 11.2435H5.0061V12.4998H6.24835V11.2435Z" fill="#FD0505"/>
<path d="M6.24835 10H5.0061V11.2435H6.24835V10Z" fill="#FD0505"/>
<path d="M6.24835 8.74371H5.0061V10H6.24835V8.74371Z" fill="#FD0505"/>
<path d="M6.24835 7.49951H5.0061V8.74305H6.24835V7.49951Z" fill="#FD0505"/>
<path d="M6.24835 6.24323H5.0061V7.49953H6.24835V6.24323Z" fill="#FD0505"/>
<path d="M6.24835 4.99969H5.0061V6.24323H6.24835V4.99969Z" fill="white"/>
<path d="M6.24835 3.74335H5.0061V4.99965H6.24835V3.74335Z" fill="white"/>
<path d="M6.24835 2.49982H5.0061V3.74335H6.24835V2.49982Z" fill="#FD0505"/>
<path d="M6.24835 1.24353H5.0061V2.49983H6.24835V1.24353Z" fill="#FD0505"/>
<path d="M6.24835 0H5.0061V1.24354H6.24835V0Z" fill="#0E0E11"/>
<path d="M5.00673 11.2435H3.75171V12.4998H5.00673V11.2435Z" fill="#0E0E11"/>
<path d="M5.00673 10H3.75171V11.2435H5.00673V10Z" fill="#FD0505"/>
<path d="M5.00673 8.74371H3.75171V10H5.00673V8.74371Z" fill="#FD0505"/>
<path d="M5.00673 7.49951H3.75171V8.74305H5.00673V7.49951Z" fill="#FD0505"/>
<path d="M5.00673 6.24323H3.75171V7.49953H5.00673V6.24323Z" fill="white"/>
<path d="M5.00673 4.99969H3.75171V6.24323H5.00673V4.99969Z" fill="white"/>
<path d="M5.00673 3.74335H3.75171V4.99965H5.00673V3.74335Z" fill="#FD0505"/>
<path d="M5.00673 2.49982H3.75171V3.74335H5.00673V2.49982Z" fill="#FD0505"/>
<path d="M5.00673 1.24353H3.75171V2.49983H5.00673V1.24353Z" fill="#FD0505"/>
<path d="M5.00673 0H3.75171V1.24354H5.00673V0Z" fill="#0E0E11"/>
<path d="M3.75179 10H2.50952V11.2435H3.75179V10Z" fill="#0E0E11"/>
<path d="M3.75179 8.74371H2.50952V10H3.75179V8.74371Z" fill="#FD0505"/>
<path d="M3.75179 7.49951H2.50952V8.74305H3.75179V7.49951Z" fill="#FD0505"/>
<path d="M3.75179 6.24323H2.50952V7.49953H3.75179V6.24323Z" fill="#FD0505"/>
<path d="M3.75179 4.99969H2.50952V6.24323H3.75179V4.99969Z" fill="#FD0505"/>
<path d="M3.75179 3.74335H2.50952V4.99965H3.75179V3.74335Z" fill="#FD0505"/>
<path d="M3.75179 2.49982H2.50952V3.74335H3.75179V2.49982Z" fill="#FD0505"/>
<path d="M3.75179 1.24353H2.50952V2.49983H3.75179V1.24353Z" fill="#0E0E11"/>
<path d="M2.50942 8.74371H1.25439V10H2.50942V8.74371Z" fill="#0E0E11"/>
<path d="M2.50942 7.49951H1.25439V8.74305H2.50942V7.49951Z" fill="#FD0505"/>
<path d="M2.50942 6.24323H1.25439V7.49953H2.50942V6.24323Z" fill="#FD0505"/>
<path d="M2.50942 4.99969H1.25439V6.24323H2.50942V4.99969Z" fill="#FD0505"/>
<path d="M2.50942 3.74335H1.25439V4.99965H2.50942V3.74335Z" fill="#FD0505"/>
<path d="M2.50942 2.49982H1.25439V3.74335H2.50942V2.49982Z" fill="#0E0E11"/>
<path d="M1.25502 7.49951H0V8.74305H1.25502V7.49951Z" fill="#0E0E11"/>
<path d="M1.25502 6.24323H0V7.49953H1.25502V6.24323Z" fill="#0E0E11"/>
<path d="M1.25502 4.99969H0V6.24323H1.25502V4.99969Z" fill="#0E0E11"/>
<path d="M1.25502 3.74335H0V4.99965H1.25502V3.74335Z" fill="#0E0E11"/>
</svg>
