<svg width="14" height="20" viewBox="0 0 14 20" fill="none" xmlns="http://www.w3.org/2000/svg">
<path d="M13.9999 18.8947H12.9194V20H13.9999V18.8947Z" fill="#0E0E11"/>
<path d="M13.9999 17.7779H12.9194V18.8946H13.9999V17.7779Z" fill="#0E0E11"/>
<path d="M13.9999 16.6725H12.9194V17.7779H13.9999V16.6725Z" fill="#0E0E11"/>
<path d="M13.9999 2.22211H12.9194V3.32748H13.9999V2.22211Z" fill="#0E0E11"/>
<path d="M13.9999 1.10535H12.9194V2.22207H13.9999V1.10535Z" fill="#0E0E11"/>
<path d="M13.9999 0H12.9194V1.10537H13.9999V0Z" fill="#0E0E11"/>
<path d="M12.9196 18.8947H11.8391V20H12.9196V18.8947Z" fill="#0E0E11"/>
<path d="M12.9196 17.7779H11.8391V18.8946H12.9196V17.7779Z" fill="#C53C0D"/>
<path d="M12.9196 16.6725H11.8391V17.7779H12.9196V16.6725Z" fill="#C53C0D"/>
<path d="M12.9196 15.5558H11.8391V16.6725H12.9196V15.5558Z" fill="#0E0E11"/>
<path d="M12.9196 14.4504H11.8391V15.5558H12.9196V14.4504Z" fill="#0E0E11"/>
<path d="M12.9196 4.44476H11.8391V5.56149H12.9196V4.44476Z" fill="#0E0E11"/>
<path d="M12.9196 3.32745H11.8391V4.44418H12.9196V3.32745Z" fill="#0E0E11"/>
<path d="M12.9196 2.22211H11.8391V3.32748H12.9196V2.22211Z" fill="#C53C0D"/>
<path d="M12.9196 1.10535H11.8391V2.22207H12.9196V1.10535Z" fill="#C53C0D"/>
<path d="M12.9196 0H11.8391V1.10537H12.9196V0Z" fill="#0E0E11"/>
<path d="M11.8395 18.8947H10.77V20H11.8395V18.8947Z" fill="#0E0E11"/>
<path d="M11.8395 17.7779H10.77V18.8946H11.8395V17.7779Z" fill="#AF370D"/>
<path d="M11.8395 16.6725H10.77V17.7779H11.8395V16.6725Z" fill="#AF370D"/>
<path d="M11.8395 15.5558H10.77V16.6725H11.8395V15.5558Z" fill="white"/>
<path d="M11.8395 14.4504H10.77V15.5558H11.8395V14.4504Z" fill="white"/>
<path d="M11.8395 13.3337H10.77V14.4504H11.8395V13.3337Z" fill="#0E0E11"/>
<path d="M11.8395 12.2278H10.77V13.3332H11.8395V12.2278Z" fill="#0E0E11"/>
<path d="M11.8395 6.66687H10.77V7.78358H11.8395V6.66687Z" fill="#0E0E11"/>
<path d="M11.8395 5.56091H10.77V6.66629H11.8395V5.56091Z" fill="#0E0E11"/>
<path d="M11.8395 4.44476H10.77V5.56149H11.8395V4.44476Z" fill="white"/>
<path d="M11.8395 3.32745H10.77V4.44418H11.8395V3.32745Z" fill="white"/>
<path d="M11.8395 2.22211H10.77V3.32748H11.8395V2.22211Z" fill="#AF370D"/>
<path d="M11.8395 1.10535H10.77V2.22207H11.8395V1.10535Z" fill="#AF370D"/>
<path d="M11.8395 0H10.77V1.10537H11.8395V0Z" fill="#0E0E11"/>
<path d="M10.7702 18.8947H9.6897V20H10.7702V18.8947Z" fill="#0E0E11"/>
<path d="M10.7702 17.7779H9.6897V18.8946H10.7702V17.7779Z" fill="#C53C0D"/>
<path d="M10.7702 16.6725H9.6897V17.7779H10.7702V16.6725Z" fill="#C53C0D"/>
<path d="M10.7702 15.5558H9.6897V16.6725H10.7702V15.5558Z" fill="#FFDD1A"/>
<path d="M10.7702 14.4504H9.6897V15.5558H10.7702V14.4504Z" fill="white"/>
<path d="M10.7702 13.3337H9.6897V14.4504H10.7702V13.3337Z" fill="white"/>
<path d="M10.7702 12.2278H9.6897V13.3332H10.7702V12.2278Z" fill="white"/>
<path d="M10.7702 11.111H9.6897V12.2277H10.7702V11.111Z" fill="#0E0E11"/>
<path d="M10.7702 7.78357H9.6897V8.88894H10.7702V7.78357Z" fill="#0E0E11"/>
<path d="M10.7702 6.66687H9.6897V7.78358H10.7702V6.66687Z" fill="white"/>
<path d="M10.7702 5.56091H9.6897V6.66629H10.7702V5.56091Z" fill="white"/>
<path d="M10.7702 4.44476H9.6897V5.56149H10.7702V4.44476Z" fill="white"/>
<path d="M10.7702 3.32745H9.6897V4.44418H10.7702V3.32745Z" fill="white"/>
<path d="M10.7702 2.22211H9.6897V3.32748H10.7702V2.22211Z" fill="#C53C0D"/>
<path d="M10.7702 1.10535H9.6897V2.22207H10.7702V1.10535Z" fill="#C53C0D"/>
<path d="M10.7702 0H9.6897V1.10537H10.7702V0Z" fill="#0E0E11"/>
<path d="M9.6896 18.8947H8.60913V20H9.6896V18.8947Z" fill="#0E0E11"/>
<path d="M9.6896 17.7779H8.60913V18.8946H9.6896V17.7779Z" fill="#C53C0D"/>
<path d="M9.6896 16.6725H8.60913V17.7779H9.6896V16.6725Z" fill="#C53C0D"/>
<path d="M9.6896 15.5558H8.60913V16.6725H9.6896V15.5558Z" fill="#FFDD1A"/>
<path d="M9.6896 14.4504H8.60913V15.5558H9.6896V14.4504Z" fill="#FFDD1A"/>
<path d="M9.6896 13.3337H8.60913V14.4504H9.6896V13.3337Z" fill="#FFDD1A"/>
<path d="M9.6896 12.2278H8.60913V13.3332H9.6896V12.2278Z" fill="white"/>
<path d="M9.6896 11.111H8.60913V12.2277H9.6896V11.111Z" fill="white"/>
<path d="M9.6896 10.0057H8.60913V11.111H9.6896V10.0057Z" fill="#0E0E11"/>
<path d="M9.6896 8.88898H8.60913V10.0057H9.6896V8.88898Z" fill="#0E0E11"/>
<path d="M9.6896 7.78357H8.60913V8.88894H9.6896V7.78357Z" fill="white"/>
<path d="M9.6896 6.66687H8.60913V7.78358H9.6896V6.66687Z" fill="white"/>
<path d="M9.6896 5.56091H8.60913V6.66629H9.6896V5.56091Z" fill="#FFDD1A"/>
<path d="M9.6896 4.44476H8.60913V5.56149H9.6896V4.44476Z" fill="white"/>
<path d="M9.6896 3.32745H8.60913V4.44418H9.6896V3.32745Z" fill="white"/>
<path d="M9.6896 2.22211H8.60913V3.32748H9.6896V2.22211Z" fill="#C53C0D"/>
<path d="M9.6896 1.10535H8.60913V2.22207H9.6896V1.10535Z" fill="#C53C0D"/>
<path d="M9.6896 0H8.60913V1.10537H9.6896V0Z" fill="#0E0E11"/>
<path d="M8.60928 18.8947H7.53979V20H8.60928V18.8947Z" fill="#0E0E11"/>
<path d="M8.60928 17.7779H7.53979V18.8946H8.60928V17.7779Z" fill="#C53C0D"/>
<path d="M8.60928 16.6725H7.53979V17.7779H8.60928V16.6725Z" fill="#C53C0D"/>
<path d="M8.60928 15.5558H7.53979V16.6725H8.60928V15.5558Z" fill="#FFDD1A"/>
<path d="M8.60928 14.4504H7.53979V15.5558H8.60928V14.4504Z" fill="#FFDD1A"/>
<path d="M8.60928 13.3337H7.53979V14.4504H8.60928V13.3337Z" fill="#FFDD1A"/>
<path d="M8.60928 12.2278H7.53979V13.3332H8.60928V12.2278Z" fill="#FFDD1A"/>
<path d="M8.60928 11.111H7.53979V12.2277H8.60928V11.111Z" fill="white"/>
<path d="M8.60928 10.0057H7.53979V11.111H8.60928V10.0057Z" fill="white"/>
<path d="M8.60928 8.88898H7.53979V10.0057H8.60928V8.88898Z" fill="white"/>
<path d="M8.60928 7.78357H7.53979V8.88894H8.60928V7.78357Z" fill="white"/>
<path d="M8.60928 6.66687H7.53979V7.78358H8.60928V6.66687Z" fill="#FFDD1A"/>
<path d="M8.60928 5.56091H7.53979V6.66629H8.60928V5.56091Z" fill="#FFDD1A"/>
<path d="M8.60928 4.44476H7.53979V5.56149H8.60928V4.44476Z" fill="#FFDD1A"/>
<path d="M8.60928 3.32745H7.53979V4.44418H8.60928V3.32745Z" fill="white"/>
<path d="M8.60928 2.22211H7.53979V3.32748H8.60928V2.22211Z" fill="#C53C0D"/>
<path d="M8.60928 1.10535H7.53979V2.22207H8.60928V1.10535Z" fill="#C53C0D"/>
<path d="M8.60928 0H7.53979V1.10537H8.60928V0Z" fill="#0E0E11"/>
<path d="M7.54019 18.8947H6.45972V20H7.54019V18.8947Z" fill="#0E0E11"/>
<path d="M7.54019 17.7779H6.45972V18.8946H7.54019V17.7779Z" fill="#C53C0D"/>
<path d="M7.54019 16.6725H6.45972V17.7779H7.54019V16.6725Z" fill="#C53C0D"/>
<path d="M7.54019 15.5558H6.45972V16.6725H7.54019V15.5558Z" fill="#FFDD1A"/>
<path d="M7.54019 14.4504H6.45972V15.5558H7.54019V14.4504Z" fill="#FFDD1A"/>
<path d="M7.54019 13.3337H6.45972V14.4504H7.54019V13.3337Z" fill="#FFDD1A"/>
<path d="M7.54019 12.2278H6.45972V13.3332H7.54019V12.2278Z" fill="#FFDD1A"/>
<path d="M7.54019 11.111H6.45972V12.2277H7.54019V11.111Z" fill="#FFDD1A"/>
<path d="M7.54019 10.0057H6.45972V11.111H7.54019V10.0057Z" fill="#FFDD1A"/>
<path d="M7.54019 8.88898H6.45972V10.0057H7.54019V8.88898Z" fill="#FFDD1A"/>
<path d="M7.54019 7.78357H6.45972V8.88894H7.54019V7.78357Z" fill="#FFDD1A"/>
<path d="M7.54019 6.66687H6.45972V7.78358H7.54019V6.66687Z" fill="#FFDD1A"/>
<path d="M7.54019 5.56091H6.45972V6.66629H7.54019V5.56091Z" fill="#FFDD1A"/>
<path d="M7.54019 4.44476H6.45972V5.56149H7.54019V4.44476Z" fill="#FFDD1A"/>
<path d="M7.54019 3.32745H6.45972V4.44418H7.54019V3.32745Z" fill="white"/>
<path d="M7.54019 2.22211H6.45972V3.32748H7.54019V2.22211Z" fill="#C53C0D"/>
<path d="M7.54019 1.10535H6.45972V2.22207H7.54019V1.10535Z" fill="#C53C0D"/>
<path d="M7.54019 0H6.45972V1.10537H7.54019V0Z" fill="#0E0E11"/>
<path d="M6.45987 18.8947H5.37939V20H6.45987V18.8947Z" fill="#0E0E11"/>
<path d="M6.45987 17.7779H5.37939V18.8946H6.45987V17.7779Z" fill="#C53C0D"/>
<path d="M6.45987 16.6725H5.37939V17.7779H6.45987V16.6725Z" fill="#C53C0D"/>
<path d="M6.45987 15.5558H5.37939V16.6725H6.45987V15.5558Z" fill="#FFDD1A"/>
<path d="M6.45987 14.4504H5.37939V15.5558H6.45987V14.4504Z" fill="#FFDD1A"/>
<path d="M6.45987 13.3337H5.37939V14.4504H6.45987V13.3337Z" fill="#FFDD1A"/>
<path d="M6.45987 12.2278H5.37939V13.3332H6.45987V12.2278Z" fill="#FFDD1A"/>
<path d="M6.45987 11.111H5.37939V12.2277H6.45987V11.111Z" fill="white"/>
<path d="M6.45987 10.0057H5.37939V11.111H6.45987V10.0057Z" fill="white"/>
<path d="M6.45987 8.88898H5.37939V10.0057H6.45987V8.88898Z" fill="white"/>
<path d="M6.45987 7.78357H5.37939V8.88894H6.45987V7.78357Z" fill="white"/>
<path d="M6.45987 6.66687H5.37939V7.78358H6.45987V6.66687Z" fill="#FFDD1A"/>
<path d="M6.45987 5.56091H5.37939V6.66629H6.45987V5.56091Z" fill="#FFDD1A"/>
<path d="M6.45987 4.44476H5.37939V5.56149H6.45987V4.44476Z" fill="#FFDD1A"/>
<path d="M6.45987 3.32745H5.37939V4.44418H6.45987V3.32745Z" fill="white"/>
<path d="M6.45987 2.22211H5.37939V3.32748H6.45987V2.22211Z" fill="#C53C0D"/>
<path d="M6.45987 1.10535H5.37939V2.22207H6.45987V1.10535Z" fill="#C53C0D"/>
<path d="M6.45987 0H5.37939V1.10537H6.45987V0Z" fill="#0E0E11"/>
<path d="M5.37929 18.8947H4.30981V20H5.37929V18.8947Z" fill="#0E0E11"/>
<path d="M5.37929 17.7779H4.30981V18.8946H5.37929V17.7779Z" fill="#C53C0D"/>
<path d="M5.37929 16.6725H4.30981V17.7779H5.37929V16.6725Z" fill="#C53C0D"/>
<path d="M5.37929 15.5558H4.30981V16.6725H5.37929V15.5558Z" fill="#FFDD1A"/>
<path d="M5.37929 14.4504H4.30981V15.5558H5.37929V14.4504Z" fill="#FFDD1A"/>
<path d="M5.37929 13.3337H4.30981V14.4504H5.37929V13.3337Z" fill="#FFDD1A"/>
<path d="M5.37929 12.2278H4.30981V13.3332H5.37929V12.2278Z" fill="white"/>
<path d="M5.37929 11.111H4.30981V12.2277H5.37929V11.111Z" fill="white"/>
<path d="M5.37929 10.0057H4.30981V11.111H5.37929V10.0057Z" fill="#0E0E11"/>
<path d="M5.37929 8.88898H4.30981V10.0057H5.37929V8.88898Z" fill="#0E0E11"/>
<path d="M5.37929 7.78357H4.30981V8.88894H5.37929V7.78357Z" fill="white"/>
<path d="M5.37929 6.66687H4.30981V7.78358H5.37929V6.66687Z" fill="white"/>
<path d="M5.37929 5.56091H4.30981V6.66629H5.37929V5.56091Z" fill="#FFDD1A"/>
<path d="M5.37929 4.44476H4.30981V5.56149H5.37929V4.44476Z" fill="white"/>
<path d="M5.37929 3.32745H4.30981V4.44418H5.37929V3.32745Z" fill="white"/>
<path d="M5.37929 2.22211H4.30981V3.32748H5.37929V2.22211Z" fill="#C53C0D"/>
<path d="M5.37929 1.10535H4.30981V2.22207H5.37929V1.10535Z" fill="#C53C0D"/>
<path d="M5.37929 0H4.30981V1.10537H5.37929V0Z" fill="#0E0E11"/>
<path d="M4.31045 18.8947H3.22998V20H4.31045V18.8947Z" fill="#0E0E11"/>
<path d="M4.31045 17.7779H3.22998V18.8946H4.31045V17.7779Z" fill="white"/>
<path d="M4.31045 16.6725H3.22998V17.7779H4.31045V16.6725Z" fill="white"/>
<path d="M4.31045 15.5558H3.22998V16.6725H4.31045V15.5558Z" fill="#FFDD1A"/>
<path d="M4.31045 14.4504H3.22998V15.5558H4.31045V14.4504Z" fill="white"/>
<path d="M4.31045 13.3337H3.22998V14.4504H4.31045V13.3337Z" fill="white"/>
<path d="M4.31045 12.2278H3.22998V13.3332H4.31045V12.2278Z" fill="white"/>
<path d="M4.31045 11.111H3.22998V12.2277H4.31045V11.111Z" fill="#0E0E11"/>
<path d="M4.31045 7.78357H3.22998V8.88894H4.31045V7.78357Z" fill="#0E0E11"/>
<path d="M4.31045 6.66687H3.22998V7.78358H4.31045V6.66687Z" fill="white"/>
<path d="M4.31045 5.56091H3.22998V6.66629H4.31045V5.56091Z" fill="white"/>
<path d="M4.31045 4.44476H3.22998V5.56149H4.31045V4.44476Z" fill="white"/>
<path d="M4.31045 3.32745H3.22998V4.44418H4.31045V3.32745Z" fill="white"/>
<path d="M4.31045 2.22211H3.22998V3.32748H4.31045V2.22211Z" fill="white"/>
<path d="M4.31045 1.10535H3.22998V2.22207H4.31045V1.10535Z" fill="white"/>
<path d="M4.31045 0H3.22998V1.10537H4.31045V0Z" fill="#0E0E11"/>
<path d="M3.22989 18.8947H2.1604V20H3.22989V18.8947Z" fill="#0E0E11"/>
<path d="M3.22989 17.7779H2.1604V18.8946H3.22989V17.7779Z" fill="#C53C0D"/>
<path d="M3.22989 16.6725H2.1604V17.7779H3.22989V16.6725Z" fill="#C53C0D"/>
<path d="M3.22989 15.5558H2.1604V16.6725H3.22989V15.5558Z" fill="white"/>
<path d="M3.22989 14.4504H2.1604V15.5558H3.22989V14.4504Z" fill="white"/>
<path d="M3.22989 13.3337H2.1604V14.4504H3.22989V13.3337Z" fill="#0E0E11"/>
<path d="M3.22989 12.2278H2.1604V13.3332H3.22989V12.2278Z" fill="#0E0E11"/>
<path d="M3.22989 6.66687H2.1604V7.78358H3.22989V6.66687Z" fill="#0E0E11"/>
<path d="M3.22989 5.56091H2.1604V6.66629H3.22989V5.56091Z" fill="#0E0E11"/>
<path d="M3.22989 4.44476H2.1604V5.56149H3.22989V4.44476Z" fill="white"/>
<path d="M3.22989 3.32745H2.1604V4.44418H3.22989V3.32745Z" fill="white"/>
<path d="M3.22989 2.22211H2.1604V3.32748H3.22989V2.22211Z" fill="#C53C0D"/>
<path d="M3.22989 1.10535H2.1604V2.22207H3.22989V1.10535Z" fill="#C53C0D"/>
<path d="M3.22989 0H2.1604V1.10537H3.22989V0Z" fill="#0E0E11"/>
<path d="M2.1603 18.8947H1.07983V20H2.1603V18.8947Z" fill="#0E0E11"/>
<path d="M2.1603 17.7779H1.07983V18.8946H2.1603V17.7779Z" fill="#C53C0D"/>
<path d="M2.1603 16.6725H1.07983V17.7779H2.1603V16.6725Z" fill="#C53C0D"/>
<path d="M2.1603 15.5558H1.07983V16.6725H2.1603V15.5558Z" fill="#0E0E11"/>
<path d="M2.1603 14.4504H1.07983V15.5558H2.1603V14.4504Z" fill="#0E0E11"/>
<path d="M2.1603 4.44476H1.07983V5.56149H2.1603V4.44476Z" fill="#0E0E11"/>
<path d="M2.1603 3.32745H1.07983V4.44418H2.1603V3.32745Z" fill="#0E0E11"/>
<path d="M2.1603 2.22211H1.07983V3.32748H2.1603V2.22211Z" fill="#C53C0D"/>
<path d="M2.1603 1.10535H1.07983V2.22207H2.1603V1.10535Z" fill="#C53C0D"/>
<path d="M2.1603 0H1.07983V1.10537H2.1603V0Z" fill="#0E0E11"/>
<path d="M1.08048 18.8947H0V20H1.08048V18.8947Z" fill="#0E0E11"/>
<path d="M1.08048 17.7779H0V18.8946H1.08048V17.7779Z" fill="#0E0E11"/>
<path d="M1.08048 16.6725H0V17.7779H1.08048V16.6725Z" fill="#0E0E11"/>
<path d="M1.08048 2.22211H0V3.32748H1.08048V2.22211Z" fill="#0E0E11"/>
<path d="M1.08048 1.10535H0V2.22207H1.08048V1.10535Z" fill="#0E0E11"/>
<path d="M1.08048 0H0V1.10537H1.08048V0Z" fill="#0E0E11"/>
</svg>
