<svg width="22" height="20" viewBox="0 0 22 20" fill="none" xmlns="http://www.w3.org/2000/svg">
<path d="M21.1796 8.23895H19.9988V9.42101H21.1796V8.23895Z" fill="#0E0E11"/>
<path d="M21.1796 7.06891H19.9988V8.23895H21.1796V7.06891Z" fill="#0E0E11"/>
<path d="M21.1796 5.88684H19.9988V7.06889H21.1796V5.88684Z" fill="#0E0E11"/>
<path d="M21.1796 4.71619H19.9988V5.88623H21.1796V4.71619Z" fill="#0E0E11"/>
<path d="M19.9995 9.42096H18.8186V10.591H19.9995V9.42096Z" fill="#0E0E11"/>
<path d="M19.9995 8.23895H18.8186V9.42101H19.9995V8.23895Z" fill="#EA9E09"/>
<path d="M19.9995 7.06891H18.8186V8.23895H19.9995V7.06891Z" fill="#EA9E09"/>
<path d="M19.9995 5.88684H18.8186V7.06889H19.9995V5.88684Z" fill="#EA9E09"/>
<path d="M19.9995 4.71619H18.8186V5.88623H19.9995V4.71619Z" fill="#EA9E09"/>
<path d="M19.9995 3.53473H18.8186V4.71678H19.9995V3.53473Z" fill="#0E0E11"/>
<path d="M18.8185 10.591H17.6497V11.7731H18.8185V10.591Z" fill="#0E0E11"/>
<path d="M18.8185 9.42096H17.6497V10.591H18.8185V9.42096Z" fill="#EA9E09"/>
<path d="M18.8185 8.23895H17.6497V9.42101H18.8185V8.23895Z" fill="#FFFF00"/>
<path d="M18.8185 7.06891H17.6497V8.23895H18.8185V7.06891Z" fill="#0E0E11"/>
<path d="M18.8185 5.88684H17.6497V7.06889H18.8185V5.88684Z" fill="#0E0E11"/>
<path d="M18.8185 4.71619H17.6497V5.88623H18.8185V4.71619Z" fill="#FFFF00"/>
<path d="M18.8185 3.53473H17.6497V4.71678H18.8185V3.53473Z" fill="#FFFF00"/>
<path d="M18.8185 2.35211H17.6497V3.53416H18.8185V2.35211Z" fill="#0E0E11"/>
<path d="M17.6496 10.591H16.4688V11.7731H17.6496V10.591Z" fill="#0E0E11"/>
<path d="M17.6496 9.42096H16.4688V10.591H17.6496V9.42096Z" fill="#EA9E09"/>
<path d="M17.6496 8.23895H16.4688V9.42101H17.6496V8.23895Z" fill="#0E0E11"/>
<path d="M17.6496 7.06891H16.4688V8.23895H17.6496V7.06891Z" fill="white"/>
<path d="M17.6496 5.88684H16.4688V7.06889H17.6496V5.88684Z" fill="white"/>
<path d="M17.6496 4.71619H16.4688V5.88623H17.6496V4.71619Z" fill="#0E0E11"/>
<path d="M17.6496 3.53473H16.4688V4.71678H17.6496V3.53473Z" fill="#FFFF00"/>
<path d="M17.6496 2.35211H16.4688V3.53416H17.6496V2.35211Z" fill="#FFFF00"/>
<path d="M17.6496 1.18207H16.4688V2.35211H17.6496V1.18207Z" fill="#0E0E11"/>
<path d="M16.4689 11.7731H15.3V12.9431H16.4689V11.7731Z" fill="#0E0E11"/>
<path d="M16.4689 10.591H15.3V11.7731H16.4689V10.591Z" fill="#EA9E09"/>
<path d="M16.4689 9.42096H15.3V10.591H16.4689V9.42096Z" fill="#FFFF00"/>
<path d="M16.4689 8.23895H15.3V9.42101H16.4689V8.23895Z" fill="#0E0E11"/>
<path d="M16.4689 7.06891H15.3V8.23895H16.4689V7.06891Z" fill="white"/>
<path d="M16.4689 5.88684H15.3V7.06889H16.4689V5.88684Z" fill="white"/>
<path d="M16.4689 4.71619H15.3V5.88623H16.4689V4.71619Z" fill="white"/>
<path d="M16.4689 3.53473H15.3V4.71678H16.4689V3.53473Z" fill="#0E0E11"/>
<path d="M16.4689 2.35211H15.3V3.53416H16.4689V2.35211Z" fill="#FFFF00"/>
<path d="M16.4689 1.18207H15.3V2.35211H16.4689V1.18207Z" fill="#FFFF00"/>
<path d="M16.4689 0H15.3V1.18205H16.4689V0Z" fill="#0E0E11"/>
<path d="M15.3007 11.7731H14.1199V12.9431H15.3007V11.7731Z" fill="#0E0E11"/>
<path d="M15.3007 10.591H14.1199V11.7731H15.3007V10.591Z" fill="#EA9E09"/>
<path d="M15.3007 9.42096H14.1199V10.591H15.3007V9.42096Z" fill="#FFFF00"/>
<path d="M15.3007 8.23895H14.1199V9.42101H15.3007V8.23895Z" fill="#0E0E11"/>
<path d="M15.3007 7.06891H14.1199V8.23895H15.3007V7.06891Z" fill="white"/>
<path d="M15.3007 5.88684H14.1199V7.06889H15.3007V5.88684Z" fill="white"/>
<path d="M15.3007 4.71619H14.1199V5.88623H15.3007V4.71619Z" fill="white"/>
<path d="M15.3007 3.53473H14.1199V4.71678H15.3007V3.53473Z" fill="white"/>
<path d="M15.3007 2.35211H14.1199V3.53416H15.3007V2.35211Z" fill="#0E0E11"/>
<path d="M15.3007 1.18207H14.1199V2.35211H15.3007V1.18207Z" fill="#FFFF00"/>
<path d="M15.3007 0H14.1199V1.18205H15.3007V0Z" fill="#0E0E11"/>
<path d="M14.1198 10.591H12.939V11.7731H14.1198V10.591Z" fill="#0E0E11"/>
<path d="M14.1198 9.42096H12.939V10.591H14.1198V9.42096Z" fill="#EA9E09"/>
<path d="M14.1198 8.23895H12.939V9.42101H14.1198V8.23895Z" fill="#FFFF00"/>
<path d="M14.1198 7.06891H12.939V8.23895H14.1198V7.06891Z" fill="#0E0E11"/>
<path d="M14.1198 5.88684H12.939V7.06889H14.1198V5.88684Z" fill="white"/>
<path d="M14.1198 4.71619H12.939V5.88623H14.1198V4.71619Z" fill="white"/>
<path d="M14.1198 3.53473H12.939V4.71678H14.1198V3.53473Z" fill="white"/>
<path d="M14.1198 2.35211H12.939V3.53416H14.1198V2.35211Z" fill="#0E0E11"/>
<path d="M14.1198 1.18207H12.939V2.35211H14.1198V1.18207Z" fill="#FFFF00"/>
<path d="M14.1198 0H12.939V1.18205H14.1198V0Z" fill="#0E0E11"/>
<path d="M12.9389 10.591H11.77V11.7731H12.9389V10.591Z" fill="#0E0E11"/>
<path d="M12.9389 9.42096H11.77V10.591H12.9389V9.42096Z" fill="#EA9E09"/>
<path d="M12.9389 8.23895H11.77V9.42101H12.9389V8.23895Z" fill="#FFFF00"/>
<path d="M12.9389 7.06891H11.77V8.23895H12.9389V7.06891Z" fill="#FFFF00"/>
<path d="M12.9389 5.88684H11.77V7.06889H12.9389V5.88684Z" fill="#0E0E11"/>
<path d="M12.9389 4.71619H11.77V5.88623H12.9389V4.71619Z" fill="#0E0E11"/>
<path d="M12.9389 3.53473H11.77V4.71678H12.9389V3.53473Z" fill="#0E0E11"/>
<path d="M12.9389 2.35211H11.77V3.53416H12.9389V2.35211Z" fill="#FFFF00"/>
<path d="M12.9389 1.18207H11.77V2.35211H12.9389V1.18207Z" fill="white"/>
<path d="M12.9389 0H11.77V1.18205H12.9389V0Z" fill="#0E0E11"/>
<path d="M11.7707 11.7731H10.5898V12.9431H11.7707V11.7731Z" fill="#0E0E11"/>
<path d="M11.7707 10.591H10.5898V11.7731H11.7707V10.591Z" fill="#EA9E09"/>
<path d="M11.7707 9.42096H10.5898V10.591H11.7707V9.42096Z" fill="#FFFF00"/>
<path d="M11.7707 8.23895H10.5898V9.42101H11.7707V8.23895Z" fill="white"/>
<path d="M11.7707 7.06891H10.5898V8.23895H11.7707V7.06891Z" fill="white"/>
<path d="M11.7707 5.88684H10.5898V7.06889H11.7707V5.88684Z" fill="#FFFF00"/>
<path d="M11.7707 4.71619H10.5898V5.88623H11.7707V4.71619Z" fill="#FFFF00"/>
<path d="M11.7707 3.53473H10.5898V4.71678H11.7707V3.53473Z" fill="white"/>
<path d="M11.7707 2.35211H10.5898V3.53416H11.7707V2.35211Z" fill="white"/>
<path d="M11.7707 1.18207H10.5898V2.35211H11.7707V1.18207Z" fill="#0E0E11"/>
<path d="M10.5898 12.9437H9.40894V14.1258H10.5898V12.9437Z" fill="#0E0E11"/>
<path d="M10.5898 11.7731H9.40894V12.9431H10.5898V11.7731Z" fill="#EA9E09"/>
<path d="M10.5898 10.591H9.40894V11.7731H10.5898V10.591Z" fill="#FFFF00"/>
<path d="M10.5898 9.42096H9.40894V10.591H10.5898V9.42096Z" fill="white"/>
<path d="M10.5898 8.23895H9.40894V9.42101H10.5898V8.23895Z" fill="#0E0E11"/>
<path d="M10.5898 7.06891H9.40894V8.23895H10.5898V7.06891Z" fill="#0E0E11"/>
<path d="M10.5898 5.88684H9.40894V7.06889H10.5898V5.88684Z" fill="white"/>
<path d="M10.5898 4.71619H9.40894V5.88623H10.5898V4.71619Z" fill="white"/>
<path d="M10.5898 3.53473H9.40894V4.71678H10.5898V3.53473Z" fill="#0E0E11"/>
<path d="M10.5898 2.35211H9.40894V3.53416H10.5898V2.35211Z" fill="#0E0E11"/>
<path d="M9.40909 14.1258H8.24023V15.2958H9.40909V14.1258Z" fill="#0E0E11"/>
<path d="M9.40909 12.9437H8.24023V14.1258H9.40909V12.9437Z" fill="#EA9E09"/>
<path d="M9.40909 11.7731H8.24023V12.9431H9.40909V11.7731Z" fill="#FFFF00"/>
<path d="M9.40909 10.591H8.24023V11.7731H9.40909V10.591Z" fill="white"/>
<path d="M9.40909 9.42096H8.24023V10.591H9.40909V9.42096Z" fill="#0E0E11"/>
<path d="M9.40909 5.88684H8.24023V7.06889H9.40909V5.88684Z" fill="#0E0E11"/>
<path d="M9.40909 4.71619H8.24023V5.88623H9.40909V4.71619Z" fill="#0E0E11"/>
<path d="M8.24065 15.2958H7.05981V16.4778H8.24065V15.2958Z" fill="#0E0E11"/>
<path d="M8.24065 14.1258H7.05981V15.2958H8.24065V14.1258Z" fill="#EA9E09"/>
<path d="M8.24065 12.9437H7.05981V14.1258H8.24065V12.9437Z" fill="#FFFF00"/>
<path d="M8.24065 11.7731H7.05981V12.9431H8.24065V11.7731Z" fill="white"/>
<path d="M8.24065 10.591H7.05981V11.7731H8.24065V10.591Z" fill="#0E0E11"/>
<path d="M7.05977 16.4778H5.87891V17.6479H7.05977V16.4778Z" fill="#0E0E11"/>
<path d="M7.05977 15.2958H5.87891V16.4778H7.05977V15.2958Z" fill="#EA9E09"/>
<path d="M7.05977 14.1258H5.87891V15.2958H7.05977V14.1258Z" fill="#FFFF00"/>
<path d="M7.05977 12.9437H5.87891V14.1258H7.05977V12.9437Z" fill="white"/>
<path d="M7.05977 11.7731H5.87891V12.9431H7.05977V11.7731Z" fill="#0E0E11"/>
<path d="M5.87904 17.6479H4.71021V18.8299H5.87904V17.6479Z" fill="#0E0E11"/>
<path d="M5.87904 16.4778H4.71021V17.6479H5.87904V16.4778Z" fill="#EA9E09"/>
<path d="M5.87904 15.2958H4.71021V16.4778H5.87904V15.2958Z" fill="#FFFF00"/>
<path d="M5.87904 14.1258H4.71021V15.2958H5.87904V14.1258Z" fill="#FFFF00"/>
<path d="M5.87904 12.9437H4.71021V14.1258H5.87904V12.9437Z" fill="#FFFF00"/>
<path d="M5.87904 11.7731H4.71021V12.9431H5.87904V11.7731Z" fill="white"/>
<path d="M5.87904 10.591H4.71021V11.7731H5.87904V10.591Z" fill="#0E0E11"/>
<path d="M4.71087 18.83H3.53003V20H4.71087V18.83Z" fill="#0E0E11"/>
<path d="M4.71087 17.6479H3.53003V18.8299H4.71087V17.6479Z" fill="#EA9E09"/>
<path d="M4.71087 16.4778H3.53003V17.6479H4.71087V16.4778Z" fill="#FFFF00"/>
<path d="M4.71087 15.2958H3.53003V16.4778H4.71087V15.2958Z" fill="#FFFF00"/>
<path d="M4.71087 14.1258H3.53003V15.2958H4.71087V14.1258Z" fill="#FFFF00"/>
<path d="M4.71087 12.9437H3.53003V14.1258H4.71087V12.9437Z" fill="#FFFF00"/>
<path d="M4.71087 11.7731H3.53003V12.9431H4.71087V11.7731Z" fill="white"/>
<path d="M4.71087 10.591H3.53003V11.7731H4.71087V10.591Z" fill="#0E0E11"/>
<path d="M3.52994 17.6479H2.36108V18.8299H3.52994V17.6479Z" fill="#0E0E11"/>
<path d="M3.52994 16.4778H2.36108V17.6479H3.52994V16.4778Z" fill="#EA9E09"/>
<path d="M3.52994 15.2958H2.36108V16.4778H3.52994V15.2958Z" fill="#FFFF00"/>
<path d="M3.52994 14.1258H2.36108V15.2958H3.52994V14.1258Z" fill="white"/>
<path d="M3.52994 12.9437H2.36108V14.1258H3.52994V12.9437Z" fill="#0E0E11"/>
<path d="M3.52994 11.7731H2.36108V12.9431H3.52994V11.7731Z" fill="#0E0E11"/>
<path d="M3.52994 10.591H2.36108V11.7731H3.52994V10.591Z" fill="#0E0E11"/>
<path d="M2.36102 16.4778H1.18018V17.6479H2.36102V16.4778Z" fill="#0E0E11"/>
<path d="M2.36102 15.2958H1.18018V16.4778H2.36102V15.2958Z" fill="#FFFF00"/>
<path d="M2.36102 14.1258H1.18018V15.2958H2.36102V14.1258Z" fill="white"/>
<path d="M2.36102 12.9437H1.18018V14.1258H2.36102V12.9437Z" fill="#0E0E11"/>
<path d="M1.18085 15.2958H0V16.4778H1.18085V15.2958Z" fill="#0E0E11"/>
<path d="M1.18085 14.1258H0V15.2958H1.18085V14.1258Z" fill="#0E0E11"/>
<path d="M1.18085 12.9437H0V14.1258H1.18085V12.9437Z" fill="#0E0E11"/>
</svg>
