<svg width="13" height="20" viewBox="0 0 13 20" fill="none" xmlns="http://www.w3.org/2000/svg">
<path d="M12.2487 15.619H11.1243V16.7434H12.2487V15.619Z" fill="black"/>
<path d="M12.2487 14.4946H11.1243V15.619H12.2487V14.4946Z" fill="black"/>
<path d="M12.2487 13.3716H11.1243V14.496H12.2487V13.3716Z" fill="black"/>
<path d="M11.1244 16.7418H10V17.8662H11.1244V16.7418Z" fill="black"/>
<path d="M11.1244 15.619H10V16.7434H11.1244V15.619Z" fill="#A10391"/>
<path d="M11.1244 14.4946H10V15.619H11.1244V14.4946Z" fill="#A10391"/>
<path d="M11.1244 13.3716H10V14.496H11.1244V13.3716Z" fill="#A10391"/>
<path d="M11.1244 12.2473H10V13.3716H11.1244V12.2473Z" fill="black"/>
<path d="M10.0016 17.8662H8.8772V18.9906H10.0016V17.8662Z" fill="black"/>
<path d="M10.0016 16.7418H8.8772V17.8662H10.0016V16.7418Z" fill="#A10391"/>
<path d="M10.0016 15.619H8.8772V16.7434H10.0016V15.619Z" fill="#A10391"/>
<path d="M10.0016 14.4946H8.8772V15.619H10.0016V14.4946Z" fill="#A10391"/>
<path d="M10.0016 13.3716H8.8772V14.496H10.0016V13.3716Z" fill="#A10391"/>
<path d="M10.0016 12.2473H8.8772V13.3716H10.0016V12.2473Z" fill="#A10391"/>
<path d="M10.0016 11.1244H8.8772V12.2488H10.0016V11.1244Z" fill="black"/>
<path d="M8.87708 18.9891H7.75269V20H8.87708V18.9891Z" fill="black"/>
<path d="M8.87708 17.8662H7.75269V18.9906H8.87708V17.8662Z" fill="#A10391"/>
<path d="M8.87708 16.7418H7.75269V17.8662H8.87708V16.7418Z" fill="#A10391"/>
<path d="M8.87708 15.619H7.75269V16.7434H8.87708V15.619Z" fill="#FF05E6"/>
<path d="M8.87708 14.4946H7.75269V15.619H8.87708V14.4946Z" fill="#FF05E6"/>
<path d="M8.87708 13.3716H7.75269V14.496H8.87708V13.3716Z" fill="#FF05E6"/>
<path d="M8.87708 12.2473H7.75269V13.3716H8.87708V12.2473Z" fill="#A10391"/>
<path d="M8.87708 11.1244H7.75269V12.2488H8.87708V11.1244Z" fill="#CBE8F2"/>
<path d="M8.87708 10H7.75269V11.1244H8.87708V10Z" fill="black"/>
<path d="M8.87708 1.12286H7.75269V2.24727H8.87708V1.12286Z" fill="black"/>
<path d="M8.87708 0H7.75269V1.12439H8.87708V0Z" fill="black"/>
<path d="M7.75427 18.9891H6.62988V20H7.75427V18.9891Z" fill="black"/>
<path d="M7.75427 17.8662H6.62988V18.9906H7.75427V17.8662Z" fill="#A10391"/>
<path d="M7.75427 16.7418H6.62988V17.8662H7.75427V16.7418Z" fill="#A10391"/>
<path d="M7.75427 15.619H6.62988V16.7434H7.75427V15.619Z" fill="#FF05E6"/>
<path d="M7.75427 14.4946H6.62988V15.619H7.75427V14.4946Z" fill="#FF05E6"/>
<path d="M7.75427 13.3716H6.62988V14.496H7.75427V13.3716Z" fill="#FF05E6"/>
<path d="M7.75427 12.2473H6.62988V13.3716H7.75427V12.2473Z" fill="#FF05E6"/>
<path d="M7.75427 11.1244H6.62988V12.2488H7.75427V11.1244Z" fill="#CBE8F2"/>
<path d="M7.75427 10H6.62988V11.1244H7.75427V10Z" fill="#CBE8F2"/>
<path d="M7.75427 8.87714H6.62988V10.0015H7.75427V8.87714Z" fill="black"/>
<path d="M7.75427 7.75275H6.62988V8.87715H7.75427V7.75275Z" fill="black"/>
<path d="M7.75427 6.62982H6.62988V7.75422H7.75427V6.62982Z" fill="black"/>
<path d="M7.75427 5.50543H6.62988V6.62983H7.75427V5.50543Z" fill="black"/>
<path d="M7.75427 4.38257H6.62988V5.50696H7.75427V4.38257Z" fill="black"/>
<path d="M7.75427 3.25818H6.62988V4.38257H7.75427V3.25818Z" fill="black"/>
<path d="M7.75427 2.24725H6.62988V3.25815H7.75427V2.24725Z" fill="black"/>
<path d="M7.75427 1.12286H6.62988V2.24727H7.75427V1.12286Z" fill="#CBE8F2"/>
<path d="M7.75427 0H6.62988V1.12439H7.75427V0Z" fill="black"/>
<path d="M6.62977 18.9891H5.50537V20H6.62977V18.9891Z" fill="black"/>
<path d="M6.62977 17.8662H5.50537V18.9906H6.62977V17.8662Z" fill="#A10391"/>
<path d="M6.62977 16.7418H5.50537V17.8662H6.62977V16.7418Z" fill="#A10391"/>
<path d="M6.62977 15.619H5.50537V16.7434H6.62977V15.619Z" fill="#FF05E6"/>
<path d="M6.62977 14.4946H5.50537V15.619H6.62977V14.4946Z" fill="#FF05E6"/>
<path d="M6.62977 13.3716H5.50537V14.496H6.62977V13.3716Z" fill="#FF05E6"/>
<path d="M6.62977 12.2473H5.50537V13.3716H6.62977V12.2473Z" fill="#FF05E6"/>
<path d="M6.62977 11.1244H5.50537V12.2488H6.62977V11.1244Z" fill="white"/>
<path d="M6.62977 10H5.50537V11.1244H6.62977V10Z" fill="#CBE8F2"/>
<path d="M6.62977 8.87714H5.50537V10.0015H6.62977V8.87714Z" fill="#CBE8F2"/>
<path d="M6.62977 7.75275H5.50537V8.87715H6.62977V7.75275Z" fill="#CBE8F2"/>
<path d="M6.62977 6.62982H5.50537V7.75422H6.62977V6.62982Z" fill="#CBE8F2"/>
<path d="M6.62977 5.50543H5.50537V6.62983H6.62977V5.50543Z" fill="#CBE8F2"/>
<path d="M6.62977 4.38257H5.50537V5.50696H6.62977V4.38257Z" fill="#CBE8F2"/>
<path d="M6.62977 3.25818H5.50537V4.38257H6.62977V3.25818Z" fill="#CBE8F2"/>
<path d="M6.62977 2.24725H5.50537V3.25815H6.62977V2.24725Z" fill="#CBE8F2"/>
<path d="M6.62977 1.12286H5.50537V2.24727H6.62977V1.12286Z" fill="#CBE8F2"/>
<path d="M6.62977 0H5.50537V1.12439H6.62977V0Z" fill="black"/>
<path d="M5.50696 18.9891H4.38257V20H5.50696V18.9891Z" fill="black"/>
<path d="M5.50696 17.8662H4.38257V18.9906H5.50696V17.8662Z" fill="#A10391"/>
<path d="M5.50696 16.7418H4.38257V17.8662H5.50696V16.7418Z" fill="#A10391"/>
<path d="M5.50696 15.619H4.38257V16.7434H5.50696V15.619Z" fill="#FF05E6"/>
<path d="M5.50696 14.4946H4.38257V15.619H5.50696V14.4946Z" fill="#FF05E6"/>
<path d="M5.50696 13.3716H4.38257V14.496H5.50696V13.3716Z" fill="white"/>
<path d="M5.50696 12.2473H4.38257V13.3716H5.50696V12.2473Z" fill="white"/>
<path d="M5.50696 11.1244H4.38257V12.2488H5.50696V11.1244Z" fill="#CBE8F2"/>
<path d="M5.50696 10H4.38257V11.1244H5.50696V10Z" fill="#CBE8F2"/>
<path d="M5.50696 8.87714H4.38257V10.0015H5.50696V8.87714Z" fill="black"/>
<path d="M5.50696 7.75275H4.38257V8.87715H5.50696V7.75275Z" fill="black"/>
<path d="M5.50696 6.62982H4.38257V7.75422H5.50696V6.62982Z" fill="black"/>
<path d="M5.50696 5.50543H4.38257V6.62983H5.50696V5.50543Z" fill="black"/>
<path d="M5.50696 4.38257H4.38257V5.50696H5.50696V4.38257Z" fill="black"/>
<path d="M5.50696 3.25818H4.38257V4.38257H5.50696V3.25818Z" fill="black"/>
<path d="M5.50696 2.24725H4.38257V3.25815H5.50696V2.24725Z" fill="black"/>
<path d="M5.50696 1.12286H4.38257V2.24727H5.50696V1.12286Z" fill="#CBE8F2"/>
<path d="M5.50696 0H4.38257V1.12439H5.50696V0Z" fill="black"/>
<path d="M4.38269 18.9891H3.2583V20H4.38269V18.9891Z" fill="black"/>
<path d="M4.38269 17.8662H3.2583V18.9906H4.38269V17.8662Z" fill="#A10391"/>
<path d="M4.38269 16.7418H3.2583V17.8662H4.38269V16.7418Z" fill="#A10391"/>
<path d="M4.38269 15.619H3.2583V16.7434H4.38269V15.619Z" fill="#FF05E6"/>
<path d="M4.38269 14.4946H3.2583V15.619H4.38269V14.4946Z" fill="white"/>
<path d="M4.38269 13.3716H3.2583V14.496H4.38269V13.3716Z" fill="white"/>
<path d="M4.38269 12.2473H3.2583V13.3716H4.38269V12.2473Z" fill="#FF05E6"/>
<path d="M4.38269 11.1244H3.2583V12.2488H4.38269V11.1244Z" fill="#CBE8F2"/>
<path d="M4.38269 10H3.2583V11.1244H4.38269V10Z" fill="black"/>
<path d="M4.38269 1.12286H3.2583V2.24727H4.38269V1.12286Z" fill="black"/>
<path d="M4.38269 0H3.2583V1.12439H4.38269V0Z" fill="black"/>
<path d="M3.25819 17.8662H2.13379V18.9906H3.25819V17.8662Z" fill="black"/>
<path d="M3.25819 16.7418H2.13379V17.8662H3.25819V16.7418Z" fill="#A10391"/>
<path d="M3.25819 15.619H2.13379V16.7434H3.25819V15.619Z" fill="#FF05E6"/>
<path d="M3.25819 14.4946H2.13379V15.619H3.25819V14.4946Z" fill="white"/>
<path d="M3.25819 13.3716H2.13379V14.496H3.25819V13.3716Z" fill="#FF05E6"/>
<path d="M3.25819 12.2473H2.13379V13.3716H3.25819V12.2473Z" fill="#FF05E6"/>
<path d="M3.25819 11.1244H2.13379V12.2488H3.25819V11.1244Z" fill="black"/>
<path d="M2.1337 16.7418H1.1228V17.8662H2.1337V16.7418Z" fill="black"/>
<path d="M2.1337 15.619H1.1228V16.7434H2.1337V15.619Z" fill="#FF05E6"/>
<path d="M2.1337 14.4946H1.1228V15.619H2.1337V14.4946Z" fill="#FF05E6"/>
<path d="M2.1337 13.3716H1.1228V14.496H2.1337V13.3716Z" fill="#FF05E6"/>
<path d="M2.1337 12.2473H1.1228V13.3716H2.1337V12.2473Z" fill="black"/>
<path d="M1.12439 15.619H0V16.7434H1.12439V15.619Z" fill="black"/>
<path d="M1.12439 14.4946H0V15.619H1.12439V14.4946Z" fill="black"/>
<path d="M1.12439 13.3716H0V14.496H1.12439V13.3716Z" fill="black"/>
</svg>
