<svg width="19" height="20" viewBox="0 0 19 20" fill="none" xmlns="http://www.w3.org/2000/svg">
<path d="M4.6994 16.4659H3.51855V17.6479H4.6994V16.4659Z" fill="#FFDD1A"/>
<path d="M15.2893 16.4659H14.1084V17.6479H15.2893V16.4659Z" fill="#FFDD1A"/>
<path d="M18.819 7.05688H17.6382V8.23894H18.819V7.05688Z" fill="#0E0E11"/>
<path d="M18.819 5.88623H17.6382V7.05627H18.819V5.88623Z" fill="#0E0E11"/>
<path d="M17.6389 17.6479H16.458V18.8179H17.6389V17.6479Z" fill="#0E0E11"/>
<path d="M17.6389 16.4659H16.458V17.6479H17.6389V16.4659Z" fill="#0E0E11"/>
<path d="M17.6389 8.23895H16.458V9.40899H17.6389V8.23895Z" fill="#0E0E11"/>
<path d="M17.6389 7.05688H16.458V8.23894H17.6389V7.05688Z" fill="#EA9E09"/>
<path d="M17.6389 5.88623H16.458V7.05627H17.6389V5.88623Z" fill="#0E0E11"/>
<path d="M16.4581 18.8179H15.2893V20H16.4581V18.8179Z" fill="#0E0E11"/>
<path d="M16.4581 17.6479H15.2893V18.8179H16.4581V17.6479Z" fill="#EA9E09"/>
<path d="M16.4581 16.4659H15.2893V17.6479H16.4581V16.4659Z" fill="#EA9E09"/>
<path d="M16.4581 15.2958H15.2893V16.4659H16.4581V15.2958Z" fill="#0E0E11"/>
<path d="M16.4581 14.1138H15.2893V15.2958H16.4581V14.1138Z" fill="#0E0E11"/>
<path d="M16.4581 12.9431H15.2893V14.1132H16.4581V12.9431Z" fill="#0E0E11"/>
<path d="M16.4581 9.409H15.2893V10.5911H16.4581V9.409Z" fill="#0E0E11"/>
<path d="M16.4581 8.23895H15.2893V9.40899H16.4581V8.23895Z" fill="#EA9E09"/>
<path d="M16.4581 7.05688H15.2893V8.23894H16.4581V7.05688Z" fill="#FFDD1A"/>
<path d="M16.4581 5.88623H15.2893V7.05627H16.4581V5.88623Z" fill="#0E0E11"/>
<path d="M15.2893 18.8179H14.1084V20H15.2893V18.8179Z" fill="#0E0E11"/>
<path d="M15.2893 17.6479H14.1084V18.8179H15.2893V17.6479Z" fill="#EA9E09"/>
<path d="M15.2893 15.2958H14.1084V16.4659H15.2893V15.2958Z" fill="#EA9E09"/>
<path d="M15.2893 14.1138H14.1084V15.2958H15.2893V14.1138Z" fill="#EA9E09"/>
<path d="M15.2893 12.9431H14.1084V14.1132H15.2893V12.9431Z" fill="#EA9E09"/>
<path d="M15.2893 11.761H14.1084V12.9431H15.2893V11.761Z" fill="#0E0E11"/>
<path d="M15.2893 10.591H14.1084V11.761H15.2893V10.591Z" fill="#0E0E11"/>
<path d="M15.2893 9.409H14.1084V10.5911H15.2893V9.409Z" fill="#EA9E09"/>
<path d="M15.2893 8.23895H14.1084V9.40899H15.2893V8.23895Z" fill="#FFDD1A"/>
<path d="M15.2893 7.05688H14.1084V8.23894H15.2893V7.05688Z" fill="#FFDD1A"/>
<path d="M15.2893 5.88623H14.1084V7.05627H15.2893V5.88623Z" fill="#0E0E11"/>
<path d="M14.1083 17.6479H12.9395V18.8179H14.1083V17.6479Z" fill="#0E0E11"/>
<path d="M14.1083 16.4659H12.9395V17.6479H14.1083V16.4659Z" fill="#EA9E09"/>
<path d="M14.1083 15.2958H12.9395V16.4659H14.1083V15.2958Z" fill="#FFDD1A"/>
<path d="M14.1083 14.1138H12.9395V15.2958H14.1083V14.1138Z" fill="#FFDD1A"/>
<path d="M14.1083 12.9431H12.9395V14.1132H14.1083V12.9431Z" fill="#FFDD1A"/>
<path d="M14.1083 11.761H12.9395V12.9431H14.1083V11.761Z" fill="#EA9E09"/>
<path d="M14.1083 10.591H12.9395V11.761H14.1083V10.591Z" fill="#EA9E09"/>
<path d="M14.1083 9.409H12.9395V10.5911H14.1083V9.409Z" fill="#FFDD1A"/>
<path d="M14.1083 8.23895H12.9395V9.40899H14.1083V8.23895Z" fill="#FFDD1A"/>
<path d="M14.1083 7.05688H12.9395V8.23894H14.1083V7.05688Z" fill="#FFDD1A"/>
<path d="M14.1083 5.88623H12.9395V7.05627H14.1083V5.88623Z" fill="#0E0E11"/>
<path d="M12.9401 16.4659H11.7593V17.6479H12.9401V16.4659Z" fill="#0E0E11"/>
<path d="M12.9401 15.2958H11.7593V16.4659H12.9401V15.2958Z" fill="#EA9E09"/>
<path d="M12.9401 14.1138H11.7593V15.2958H12.9401V14.1138Z" fill="#FFDD1A"/>
<path d="M12.9401 12.9431H11.7593V14.1132H12.9401V12.9431Z" fill="#FFDD1A"/>
<path d="M12.9401 11.761H11.7593V12.9431H12.9401V11.761Z" fill="#FFDD1A"/>
<path d="M12.9401 10.591H11.7593V11.761H12.9401V10.591Z" fill="#FFDD1A"/>
<path d="M12.9401 9.409H11.7593V10.5911H12.9401V9.409Z" fill="#FFDD1A"/>
<path d="M12.9401 8.23895H11.7593V9.40899H12.9401V8.23895Z" fill="#FFDD1A"/>
<path d="M12.9401 7.05688H11.7593V8.23894H12.9401V7.05688Z" fill="#FFDD1A"/>
<path d="M12.9401 5.88623H11.7593V7.05627H12.9401V5.88623Z" fill="#FFDD1A"/>
<path d="M12.9401 4.70477H11.7593V5.88683H12.9401V4.70477Z" fill="#0E0E11"/>
<path d="M12.9401 3.52216H11.7593V4.70421H12.9401V3.52216Z" fill="#0E0E11"/>
<path d="M11.7592 16.4659H10.5784V17.6479H11.7592V16.4659Z" fill="#0E0E11"/>
<path d="M11.7592 15.2958H10.5784V16.4659H11.7592V15.2958Z" fill="#EA9E09"/>
<path d="M11.7592 14.1138H10.5784V15.2958H11.7592V14.1138Z" fill="#FFDD1A"/>
<path d="M11.7592 12.9431H10.5784V14.1132H11.7592V12.9431Z" fill="#FFDD1A"/>
<path d="M11.7592 11.761H10.5784V12.9431H11.7592V11.761Z" fill="#FFDD1A"/>
<path d="M11.7592 10.591H10.5784V11.761H11.7592V10.591Z" fill="#FFDD1A"/>
<path d="M11.7592 9.409H10.5784V10.5911H11.7592V9.409Z" fill="#FFDD1A"/>
<path d="M11.7592 8.23895H10.5784V9.40899H11.7592V8.23895Z" fill="#FFDD1A"/>
<path d="M11.7592 7.05688H10.5784V8.23894H11.7592V7.05688Z" fill="#FFDD1A"/>
<path d="M11.7592 5.88623H10.5784V7.05627H11.7592V5.88623Z" fill="#FFDD1A"/>
<path d="M11.7592 4.70477H10.5784V5.88683H11.7592V4.70477Z" fill="#FFDD1A"/>
<path d="M11.7592 3.52216H10.5784V4.70421H11.7592V3.52216Z" fill="#FFDD1A"/>
<path d="M11.7592 2.35211H10.5784V3.52216H11.7592V2.35211Z" fill="#0E0E11"/>
<path d="M11.7592 1.17004H10.5784V2.3521H11.7592V1.17004Z" fill="#0E0E11"/>
<path d="M10.5785 15.2958H9.40967V16.4659H10.5785V15.2958Z" fill="#0E0E11"/>
<path d="M10.5785 14.1138H9.40967V15.2958H10.5785V14.1138Z" fill="#EA9E09"/>
<path d="M10.5785 12.9431H9.40967V14.1132H10.5785V12.9431Z" fill="#FFDD1A"/>
<path d="M10.5785 11.761H9.40967V12.9431H10.5785V11.761Z" fill="#FFDD1A"/>
<path d="M10.5785 10.591H9.40967V11.761H10.5785V10.591Z" fill="#FFDD1A"/>
<path d="M10.5785 9.409H9.40967V10.5911H10.5785V9.409Z" fill="#FFDD1A"/>
<path d="M10.5785 8.23895H9.40967V9.40899H10.5785V8.23895Z" fill="#FFDD1A"/>
<path d="M10.5785 7.05688H9.40967V8.23894H10.5785V7.05688Z" fill="#FFDD1A"/>
<path d="M10.5785 5.88623H9.40967V7.05627H10.5785V5.88623Z" fill="#FFDD1A"/>
<path d="M10.5785 4.70477H9.40967V5.88683H10.5785V4.70477Z" fill="#FFDD1A"/>
<path d="M10.5785 3.52216H9.40967V4.70421H10.5785V3.52216Z" fill="#FFDD1A"/>
<path d="M10.5785 2.35211H9.40967V3.52216H10.5785V2.35211Z" fill="#FFDD1A"/>
<path d="M10.5785 1.17004H9.40967V2.3521H10.5785V1.17004Z" fill="white"/>
<path d="M10.5785 0H9.40967V1.17004H10.5785V0Z" fill="#0E0E11"/>
<path d="M9.41011 15.2958H8.22925V16.4659H9.41011V15.2958Z" fill="#0E0E11"/>
<path d="M9.41011 14.1138H8.22925V15.2958H9.41011V14.1138Z" fill="#EA9E09"/>
<path d="M9.41011 12.9431H8.22925V14.1132H9.41011V12.9431Z" fill="#FFDD1A"/>
<path d="M9.41011 11.761H8.22925V12.9431H9.41011V11.761Z" fill="#FFDD1A"/>
<path d="M9.41011 10.591H8.22925V11.761H9.41011V10.591Z" fill="#FFDD1A"/>
<path d="M9.41011 9.409H8.22925V10.5911H9.41011V9.409Z" fill="#FFDD1A"/>
<path d="M9.41011 8.23895H8.22925V9.40899H9.41011V8.23895Z" fill="#FFDD1A"/>
<path d="M9.41011 7.05688H8.22925V8.23894H9.41011V7.05688Z" fill="white"/>
<path d="M9.41011 5.88623H8.22925V7.05627H9.41011V5.88623Z" fill="#FFDD1A"/>
<path d="M9.41011 4.70477H8.22925V5.88683H9.41011V4.70477Z" fill="#FFDD1A"/>
<path d="M9.41011 3.52216H8.22925V4.70421H9.41011V3.52216Z" fill="#FFDD1A"/>
<path d="M9.41011 2.35211H8.22925V3.52216H9.41011V2.35211Z" fill="white"/>
<path d="M9.41011 1.17004H8.22925V2.3521H9.41011V1.17004Z" fill="white"/>
<path d="M9.41011 0H8.22925V1.17004H9.41011V0Z" fill="#0E0E11"/>
<path d="M8.22943 16.4659H7.04858V17.6479H8.22943V16.4659Z" fill="#0E0E11"/>
<path d="M8.22943 15.2958H7.04858V16.4659H8.22943V15.2958Z" fill="#EA9E09"/>
<path d="M8.22943 14.1138H7.04858V15.2958H8.22943V14.1138Z" fill="#FFDD1A"/>
<path d="M8.22943 12.9431H7.04858V14.1132H8.22943V12.9431Z" fill="#FFDD1A"/>
<path d="M8.22943 11.761H7.04858V12.9431H8.22943V11.761Z" fill="#FFDD1A"/>
<path d="M8.22943 10.591H7.04858V11.761H8.22943V10.591Z" fill="#FFDD1A"/>
<path d="M8.22943 9.409H7.04858V10.5911H8.22943V9.409Z" fill="white"/>
<path d="M8.22943 8.23895H7.04858V9.40899H8.22943V8.23895Z" fill="white"/>
<path d="M8.22943 7.05688H7.04858V8.23894H8.22943V7.05688Z" fill="#FFDD1A"/>
<path d="M8.22943 5.88623H7.04858V7.05627H8.22943V5.88623Z" fill="#FFDD1A"/>
<path d="M8.22943 4.70477H7.04858V5.88683H8.22943V4.70477Z" fill="white"/>
<path d="M8.22943 3.52216H7.04858V4.70421H8.22943V3.52216Z" fill="white"/>
<path d="M8.22943 2.35211H7.04858V3.52216H8.22943V2.35211Z" fill="#0E0E11"/>
<path d="M8.22943 1.17004H7.04858V2.3521H8.22943V1.17004Z" fill="#0E0E11"/>
<path d="M7.04849 16.4659H5.87964V17.6479H7.04849V16.4659Z" fill="#0E0E11"/>
<path d="M7.04849 15.2958H5.87964V16.4659H7.04849V15.2958Z" fill="#EA9E09"/>
<path d="M7.04849 14.1138H5.87964V15.2958H7.04849V14.1138Z" fill="#FFDD1A"/>
<path d="M7.04849 12.9431H5.87964V14.1132H7.04849V12.9431Z" fill="#FFDD1A"/>
<path d="M7.04849 11.761H5.87964V12.9431H7.04849V11.761Z" fill="#FFDD1A"/>
<path d="M7.04849 10.591H5.87964V11.761H7.04849V10.591Z" fill="#FFDD1A"/>
<path d="M7.04849 9.409H5.87964V10.5911H7.04849V9.409Z" fill="#FFDD1A"/>
<path d="M7.04849 8.23895H5.87964V9.40899H7.04849V8.23895Z" fill="#FFDD1A"/>
<path d="M7.04849 7.05688H5.87964V8.23894H7.04849V7.05688Z" fill="#FFDD1A"/>
<path d="M7.04849 5.88623H5.87964V7.05627H7.04849V5.88623Z" fill="white"/>
<path d="M7.04849 4.70477H5.87964V5.88683H7.04849V4.70477Z" fill="#0E0E11"/>
<path d="M7.04849 3.52216H5.87964V4.70421H7.04849V3.52216Z" fill="#0E0E11"/>
<path d="M5.8803 17.6479H4.69946V18.8179H5.8803V17.6479Z" fill="#0E0E11"/>
<path d="M5.8803 16.4659H4.69946V17.6479H5.8803V16.4659Z" fill="#EA9E09"/>
<path d="M5.8803 15.2958H4.69946V16.4659H5.8803V15.2958Z" fill="#FFDD1A"/>
<path d="M5.8803 14.1138H4.69946V15.2958H5.8803V14.1138Z" fill="#FFDD1A"/>
<path d="M5.8803 12.9431H4.69946V14.1132H5.8803V12.9431Z" fill="#FFDD1A"/>
<path d="M5.8803 11.761H4.69946V12.9431H5.8803V11.761Z" fill="white"/>
<path d="M5.8803 10.591H4.69946V11.761H5.8803V10.591Z" fill="white"/>
<path d="M5.8803 9.409H4.69946V10.5911H5.8803V9.409Z" fill="#FFDD1A"/>
<path d="M5.8803 8.23895H4.69946V9.40899H5.8803V8.23895Z" fill="#FFDD1A"/>
<path d="M5.8803 7.05688H4.69946V8.23894H5.8803V7.05688Z" fill="white"/>
<path d="M5.8803 5.88623H4.69946V7.05627H5.8803V5.88623Z" fill="#0E0E11"/>
<path d="M4.6994 18.8179H3.51855V20H4.6994V18.8179Z" fill="#0E0E11"/>
<path d="M4.6994 17.6479H3.51855V18.8179H4.6994V17.6479Z" fill="#EA9E09"/>
<path d="M4.6994 15.2958H3.51855V16.4659H4.6994V15.2958Z" fill="white"/>
<path d="M4.6994 14.1138H3.51855V15.2958H4.6994V14.1138Z" fill="white"/>
<path d="M4.6994 12.9431H3.51855V14.1132H4.6994V12.9431Z" fill="white"/>
<path d="M4.6994 11.761H3.51855V12.9431H4.6994V11.761Z" fill="#0E0E11"/>
<path d="M4.6994 10.591H3.51855V11.761H4.6994V10.591Z" fill="#0E0E11"/>
<path d="M4.6994 9.409H3.51855V10.5911H4.6994V9.409Z" fill="white"/>
<path d="M4.6994 8.23895H3.51855V9.40899H4.6994V8.23895Z" fill="#FFDD1A"/>
<path d="M4.6994 7.05688H3.51855V8.23894H4.6994V7.05688Z" fill="white"/>
<path d="M4.6994 5.88623H3.51855V7.05627H4.6994V5.88623Z" fill="#0E0E11"/>
<path d="M3.51846 18.8179H2.34961V20H3.51846V18.8179Z" fill="#0E0E11"/>
<path d="M3.51846 17.6479H2.34961V18.8179H3.51846V17.6479Z" fill="white"/>
<path d="M3.51846 16.4659H2.34961V17.6479H3.51846V16.4659Z" fill="white"/>
<path d="M3.51846 15.2958H2.34961V16.4659H3.51846V15.2958Z" fill="#0E0E11"/>
<path d="M3.51846 14.1138H2.34961V15.2958H3.51846V14.1138Z" fill="#0E0E11"/>
<path d="M3.51846 12.9431H2.34961V14.1132H3.51846V12.9431Z" fill="#0E0E11"/>
<path d="M3.51846 9.409H2.34961V10.5911H3.51846V9.409Z" fill="#0E0E11"/>
<path d="M3.51846 8.23895H2.34961V9.40899H3.51846V8.23895Z" fill="white"/>
<path d="M3.51846 7.05688H2.34961V8.23894H3.51846V7.05688Z" fill="white"/>
<path d="M3.51846 5.88623H2.34961V7.05627H3.51846V5.88623Z" fill="#0E0E11"/>
<path d="M2.34979 17.6479H1.16895V18.8179H2.34979V17.6479Z" fill="#0E0E11"/>
<path d="M2.34979 16.4659H1.16895V17.6479H2.34979V16.4659Z" fill="#0E0E11"/>
<path d="M2.34979 8.23895H1.16895V9.40899H2.34979V8.23895Z" fill="#0E0E11"/>
<path d="M2.34979 7.05688H1.16895V8.23894H2.34979V7.05688Z" fill="white"/>
<path d="M2.34979 5.88623H1.16895V7.05627H2.34979V5.88623Z" fill="#0E0E11"/>
<path d="M1.16884 7.05688H0V8.23894H1.16884V7.05688Z" fill="#0E0E11"/>
<path d="M1.16884 5.88623H0V7.05627H1.16884V5.88623Z" fill="#0E0E11"/>
</svg>
