<svg width="20" height="20" viewBox="0 0 20 20" fill="none" xmlns="http://www.w3.org/2000/svg">
<path d="M19.9999 2.35211H18.8191V3.53416H19.9999V2.35211Z" fill="#0E0E11"/>
<path d="M19.9999 1.18207H18.8191V2.35211H19.9999V1.18207Z" fill="#0E0E11"/>
<path d="M19.9999 0H18.8191V1.18205H19.9999V0Z" fill="#0E0E11"/>
<path d="M18.819 3.53412H17.6382V4.70416H18.819V3.53412Z" fill="#0E0E11"/>
<path d="M18.819 2.35211H17.6382V3.53416H18.819V2.35211Z" fill="#AFAFAF"/>
<path d="M18.819 1.18207H17.6382V2.35211H18.819V1.18207Z" fill="#AFAFAF"/>
<path d="M18.819 0H17.6382V1.18205H18.819V0Z" fill="#0E0E11"/>
<path d="M17.6383 4.70416H16.4695V5.88622H17.6383V4.70416Z" fill="#0E0E11"/>
<path d="M17.6383 3.53412H16.4695V4.70416H17.6383V3.53412Z" fill="#E6E6E6"/>
<path d="M17.6383 2.35211H16.4695V3.53416H17.6383V2.35211Z" fill="#E6E6E6"/>
<path d="M17.6383 0H16.4695V1.18205H17.6383V0Z" fill="#0E0E11"/>
<path d="M16.4694 5.88623H15.2886V7.05626H16.4694V5.88623Z" fill="#0E0E11"/>
<path d="M16.4694 4.70416H15.2886V5.88622H16.4694V4.70416Z" fill="#E6E6E6"/>
<path d="M16.4694 3.53412H15.2886V4.70416H16.4694V3.53412Z" fill="#E6E6E6"/>
<path d="M16.4694 1.18207H15.2886V2.35211H16.4694V1.18207Z" fill="#0E0E11"/>
<path d="M15.2892 7.05627H14.1084V8.23833H15.2892V7.05627Z" fill="#0E0E11"/>
<path d="M15.2892 5.88623H14.1084V7.05626H15.2892V5.88623Z" fill="#AFAFAF"/>
<path d="M15.2892 4.70416H14.1084V5.88622H15.2892V4.70416Z" fill="#AFAFAF"/>
<path d="M15.2892 2.35211H14.1084V3.53416H15.2892V2.35211Z" fill="#0E0E11"/>
<path d="M14.1083 8.23834H12.9395V9.40838H14.1083V8.23834Z" fill="#0E0E11"/>
<path d="M14.1083 7.05627H12.9395V8.23833H14.1083V7.05627Z" fill="#AFAFAF"/>
<path d="M14.1083 5.88623H12.9395V7.05626H14.1083V5.88623Z" fill="#AFAFAF"/>
<path d="M14.1083 3.53412H12.9395V4.70416H14.1083V3.53412Z" fill="#0E0E11"/>
<path d="M12.9394 9.409H11.7585V10.591H12.9394V9.409Z" fill="#0E0E11"/>
<path d="M12.9394 8.23834H11.7585V9.40838H12.9394V8.23834Z" fill="#E6E6E6"/>
<path d="M12.9394 7.05627H11.7585V8.23833H12.9394V7.05627Z" fill="#E6E6E6"/>
<path d="M12.9394 4.70416H11.7585V5.88622H12.9394V4.70416Z" fill="#0E0E11"/>
<path d="M11.7592 10.591H10.5903V11.7611H11.7592V10.591Z" fill="#0E0E11"/>
<path d="M11.7592 9.409H10.5903V10.591H11.7592V9.409Z" fill="#E6E6E6"/>
<path d="M11.7592 8.23834H10.5903V9.40838H11.7592V8.23834Z" fill="#E6E6E6"/>
<path d="M11.7592 5.88623H10.5903V7.05626H11.7592V5.88623Z" fill="#0E0E11"/>
<path d="M10.5905 15.2952H9.40967V16.4653H10.5905V15.2952Z" fill="#0E0E11"/>
<path d="M10.5905 14.1132H9.40967V15.2952H10.5905V14.1132Z" fill="#0E0E11"/>
<path d="M10.5905 11.7611H9.40967V12.9431H10.5905V11.7611Z" fill="#0E0E11"/>
<path d="M10.5905 10.591H9.40967V11.7611H10.5905V10.591Z" fill="#AFAFAF"/>
<path d="M10.5905 9.409H9.40967V10.591H10.5905V9.409Z" fill="#AFAFAF"/>
<path d="M10.5905 7.05627H9.40967V8.23833H10.5905V7.05627Z" fill="#0E0E11"/>
<path d="M9.40961 16.4653H8.22876V17.6473H9.40961V16.4653Z" fill="#0E0E11"/>
<path d="M9.40961 15.2952H8.22876V16.4653H9.40961V15.2952Z" fill="#FFFF00"/>
<path d="M9.40961 14.1132H8.22876V15.2952H9.40961V14.1132Z" fill="#FEFEA3"/>
<path d="M9.40961 12.9431H8.22876V14.1132H9.40961V12.9431Z" fill="#0E0E11"/>
<path d="M9.40961 11.7611H8.22876V12.9431H9.40961V11.7611Z" fill="#AFAFAF"/>
<path d="M9.40961 10.591H8.22876V11.7611H9.40961V10.591Z" fill="#AFAFAF"/>
<path d="M9.40961 8.23834H8.22876V9.40838H9.40961V8.23834Z" fill="#0E0E11"/>
<path d="M8.22865 15.2952H7.05981V16.4653H8.22865V15.2952Z" fill="#0E0E11"/>
<path d="M8.22865 14.1132H7.05981V15.2952H8.22865V14.1132Z" fill="#FFFF00"/>
<path d="M8.22865 12.9431H7.05981V14.1132H8.22865V12.9431Z" fill="#FEFEA3"/>
<path d="M8.22865 11.7611H7.05981V12.9431H8.22865V11.7611Z" fill="#E32121"/>
<path d="M8.22865 9.409H7.05981V10.591H8.22865V9.409Z" fill="#0E0E11"/>
<path d="M7.06048 15.2952H5.87964V16.4653H7.06048V15.2952Z" fill="#0E0E11"/>
<path d="M7.06048 14.1132H5.87964V15.2952H7.06048V14.1132Z" fill="#FFFF00"/>
<path d="M7.06048 12.9431H5.87964V14.1132H7.06048V12.9431Z" fill="#E32121"/>
<path d="M7.06048 11.7611H5.87964V12.9431H7.06048V11.7611Z" fill="#FEFEA3"/>
<path d="M7.06048 10.591H5.87964V11.7611H7.06048V10.591Z" fill="#0E0E11"/>
<path d="M5.87959 15.2952H4.69873V16.4653H5.87959V15.2952Z" fill="#0E0E11"/>
<path d="M5.87959 14.1132H4.69873V15.2952H5.87959V14.1132Z" fill="#0E0E11"/>
<path d="M5.87959 12.9431H4.69873V14.1132H5.87959V12.9431Z" fill="#FFFF00"/>
<path d="M5.87959 11.7611H4.69873V12.9431H5.87959V11.7611Z" fill="#FFFF00"/>
<path d="M5.87959 10.591H4.69873V11.7611H5.87959V10.591Z" fill="#FEFEA3"/>
<path d="M5.87959 9.409H4.69873V10.591H5.87959V9.409Z" fill="#0E0E11"/>
<path d="M4.69887 16.4653H3.53003V17.6473H4.69887V16.4653Z" fill="#0E0E11"/>
<path d="M4.69887 15.2952H3.53003V16.4653H4.69887V15.2952Z" fill="#C53C0D"/>
<path d="M4.69887 14.1132H3.53003V15.2952H4.69887V14.1132Z" fill="#0E0E11"/>
<path d="M4.69887 12.9431H3.53003V14.1132H4.69887V12.9431Z" fill="#0E0E11"/>
<path d="M4.69887 11.7611H3.53003V12.9431H4.69887V11.7611Z" fill="#0E0E11"/>
<path d="M4.69887 10.591H3.53003V11.7611H4.69887V10.591Z" fill="#FFFF00"/>
<path d="M4.69887 9.409H3.53003V10.591H4.69887V9.409Z" fill="#0E0E11"/>
<path d="M3.53046 17.6473H2.34961V18.8173H3.53046V17.6473Z" fill="#0E0E11"/>
<path d="M3.53046 16.4653H2.34961V17.6473H3.53046V16.4653Z" fill="#EA9E09"/>
<path d="M3.53046 15.2952H2.34961V16.4653H3.53046V15.2952Z" fill="#0E0E11"/>
<path d="M3.53046 10.591H2.34961V11.7611H3.53046V10.591Z" fill="#0E0E11"/>
<path d="M2.34981 18.8179H1.16895V20H2.34981V18.8179Z" fill="#0E0E11"/>
<path d="M2.34981 17.6473H1.16895V18.8173H2.34981V17.6473Z" fill="#C53C0D"/>
<path d="M2.34981 16.4653H1.16895V17.6473H2.34981V16.4653Z" fill="#0E0E11"/>
<path d="M1.16884 18.8179H0V20H1.16884V18.8179Z" fill="#0E0E11"/>
<path d="M1.16884 17.6473H0V18.8173H1.16884V17.6473Z" fill="#0E0E11"/>
</svg>
